%TF.GenerationSoftware,KiCad,Pcbnew,(5.99.0-10847-g28909c1a72)*%
%TF.CreationDate,2021-06-19T00:09:30+03:00*%
%TF.ProjectId,vanpole plates,76616e70-6f6c-4652-9070-6c617465732e,rev?*%
%TF.SameCoordinates,Original*%
%TF.FileFunction,Soldermask,Bot*%
%TF.FilePolarity,Negative*%
%FSLAX46Y46*%
G04 Gerber Fmt 4.6, Leading zero omitted, Abs format (unit mm)*
G04 Created by KiCad (PCBNEW (5.99.0-10847-g28909c1a72)) date 2021-06-19 00:09:30*
%MOMM*%
%LPD*%
G01*
G04 APERTURE LIST*
G04 Aperture macros list*
%AMRoundRect*
0 Rectangle with rounded corners*
0 $1 Rounding radius*
0 $2 $3 $4 $5 $6 $7 $8 $9 X,Y pos of 4 corners*
0 Add a 4 corners polygon primitive as box body*
4,1,4,$2,$3,$4,$5,$6,$7,$8,$9,$2,$3,0*
0 Add four circle primitives for the rounded corners*
1,1,$1+$1,$2,$3*
1,1,$1+$1,$4,$5*
1,1,$1+$1,$6,$7*
1,1,$1+$1,$8,$9*
0 Add four rect primitives between the rounded corners*
20,1,$1+$1,$2,$3,$4,$5,0*
20,1,$1+$1,$4,$5,$6,$7,0*
20,1,$1+$1,$6,$7,$8,$9,0*
20,1,$1+$1,$8,$9,$2,$3,0*%
G04 Aperture macros list end*
%ADD10C,0.200000*%
%ADD11RoundRect,1.008000X-6.992000X-6.992000X6.992000X-6.992000X6.992000X6.992000X-6.992000X6.992000X0*%
G04 APERTURE END LIST*
D10*
X287800000Y-235200000D02*
X287800000Y-249200000D01*
X287800000Y-249200000D02*
X287600000Y-249400000D01*
X287600000Y-249400000D02*
X285600000Y-249400000D01*
X285600000Y-249400000D02*
X285400000Y-249200000D01*
X285400000Y-249200000D02*
X285400000Y-235200000D01*
X285400000Y-235200000D02*
X285600000Y-235000000D01*
X285600000Y-235000000D02*
X287600000Y-235000000D01*
X287600000Y-235000000D02*
X287800000Y-235200000D01*
G36*
X287800000Y-235200000D02*
G01*
X287800000Y-249200000D01*
X287600000Y-249400000D01*
X285600000Y-249400000D01*
X285400000Y-249200000D01*
X285400000Y-235200000D01*
X285600000Y-235000000D01*
X287600000Y-235000000D01*
X287800000Y-235200000D01*
G37*
X287800000Y-235200000D02*
X287800000Y-249200000D01*
X287600000Y-249400000D01*
X285600000Y-249400000D01*
X285400000Y-249200000D01*
X285400000Y-235200000D01*
X285600000Y-235000000D01*
X287600000Y-235000000D01*
X287800000Y-235200000D01*
X264600000Y-235200000D02*
X264600000Y-249200000D01*
X264600000Y-249200000D02*
X264400000Y-249400000D01*
X264400000Y-249400000D02*
X262400000Y-249400000D01*
X262400000Y-249400000D02*
X262200000Y-249200000D01*
X262200000Y-249200000D02*
X262200000Y-235200000D01*
X262200000Y-235200000D02*
X262400000Y-235000000D01*
X262400000Y-235000000D02*
X264400000Y-235000000D01*
X264400000Y-235000000D02*
X264600000Y-235200000D01*
G36*
X264600000Y-235200000D02*
G01*
X264600000Y-249200000D01*
X264400000Y-249400000D01*
X262400000Y-249400000D01*
X262200000Y-249200000D01*
X262200000Y-235200000D01*
X262400000Y-235000000D01*
X264400000Y-235000000D01*
X264600000Y-235200000D01*
G37*
X264600000Y-235200000D02*
X264600000Y-249200000D01*
X264400000Y-249400000D01*
X262400000Y-249400000D01*
X262200000Y-249200000D01*
X262200000Y-235200000D01*
X262400000Y-235000000D01*
X264400000Y-235000000D01*
X264600000Y-235200000D01*
X290198991Y-254398831D02*
X290198991Y-268198831D01*
X290198991Y-268198831D02*
X289998991Y-268398831D01*
X289998991Y-268398831D02*
X287998991Y-268398831D01*
X287998991Y-268398831D02*
X287798991Y-268198831D01*
X287798991Y-268198831D02*
X287798991Y-254398831D01*
X287798991Y-254398831D02*
X287998991Y-254198831D01*
X287998991Y-254198831D02*
X289998991Y-254198831D01*
X289998991Y-254198831D02*
X290198991Y-254398831D01*
G36*
X290198991Y-254398831D02*
G01*
X290198991Y-268198831D01*
X289998991Y-268398831D01*
X287998991Y-268398831D01*
X287798991Y-268198831D01*
X287798991Y-254398831D01*
X287998991Y-254198831D01*
X289998991Y-254198831D01*
X290198991Y-254398831D01*
G37*
X290198991Y-254398831D02*
X290198991Y-268198831D01*
X289998991Y-268398831D01*
X287998991Y-268398831D01*
X287798991Y-268198831D01*
X287798991Y-254398831D01*
X287998991Y-254198831D01*
X289998991Y-254198831D01*
X290198991Y-254398831D01*
X266998088Y-254399522D02*
X266998088Y-268199522D01*
X266998088Y-268199522D02*
X266798088Y-268399522D01*
X266798088Y-268399522D02*
X264798088Y-268399522D01*
X264798088Y-268399522D02*
X264598088Y-268199522D01*
X264598088Y-268199522D02*
X264598088Y-254399522D01*
X264598088Y-254399522D02*
X264798088Y-254199522D01*
X264798088Y-254199522D02*
X266798088Y-254199522D01*
X266798088Y-254199522D02*
X266998088Y-254399522D01*
G36*
X266998088Y-254399522D02*
G01*
X266998088Y-268199522D01*
X266798088Y-268399522D01*
X264798088Y-268399522D01*
X264598088Y-268199522D01*
X264598088Y-254399522D01*
X264798088Y-254199522D01*
X266798088Y-254199522D01*
X266998088Y-254399522D01*
G37*
X266998088Y-254399522D02*
X266998088Y-268199522D01*
X266798088Y-268399522D01*
X264798088Y-268399522D01*
X264598088Y-268199522D01*
X264598088Y-254399522D01*
X264798088Y-254199522D01*
X266798088Y-254199522D01*
X266998088Y-254399522D01*
X16991702Y-273391924D02*
X16991702Y-287391924D01*
X16991702Y-287391924D02*
X16791702Y-287591924D01*
X16791702Y-287591924D02*
X14791702Y-287591924D01*
X14791702Y-287591924D02*
X14591702Y-287391924D01*
X14591702Y-287391924D02*
X14591702Y-273391924D01*
X14591702Y-273391924D02*
X14791702Y-273191924D01*
X14791702Y-273191924D02*
X16791702Y-273191924D01*
X16791702Y-273191924D02*
X16991702Y-273391924D01*
G36*
X16991702Y-273391924D02*
G01*
X16991702Y-287391924D01*
X16791702Y-287591924D01*
X14791702Y-287591924D01*
X14591702Y-287391924D01*
X14591702Y-273391924D01*
X14791702Y-273191924D01*
X16791702Y-273191924D01*
X16991702Y-273391924D01*
G37*
X16991702Y-273391924D02*
X16991702Y-287391924D01*
X16791702Y-287591924D01*
X14791702Y-287591924D01*
X14591702Y-287391924D01*
X14591702Y-273391924D01*
X14791702Y-273191924D01*
X16791702Y-273191924D01*
X16991702Y-273391924D01*
X40193016Y-273379192D02*
X40193016Y-287379192D01*
X40193016Y-287379192D02*
X39993016Y-287579192D01*
X39993016Y-287579192D02*
X37993016Y-287579192D01*
X37993016Y-287579192D02*
X37793016Y-287379192D01*
X37793016Y-287379192D02*
X37793016Y-273379192D01*
X37793016Y-273379192D02*
X37993016Y-273179192D01*
X37993016Y-273179192D02*
X39993016Y-273179192D01*
X39993016Y-273179192D02*
X40193016Y-273379192D01*
G36*
X40193016Y-273379192D02*
G01*
X40193016Y-287379192D01*
X39993016Y-287579192D01*
X37993016Y-287579192D01*
X37793016Y-287379192D01*
X37793016Y-273379192D01*
X37993016Y-273179192D01*
X39993016Y-273179192D01*
X40193016Y-273379192D01*
G37*
X40193016Y-273379192D02*
X40193016Y-287379192D01*
X39993016Y-287579192D01*
X37993016Y-287579192D01*
X37793016Y-287379192D01*
X37793016Y-273379192D01*
X37993016Y-273179192D01*
X39993016Y-273179192D01*
X40193016Y-273379192D01*
X34400000Y-268189424D02*
X31600000Y-268189424D01*
X31600000Y-268189424D02*
X31600000Y-253989424D01*
X31600000Y-253989424D02*
X34400000Y-253989424D01*
X34400000Y-253989424D02*
X34400000Y-268189424D01*
G36*
X34400000Y-268189424D02*
G01*
X31600000Y-268189424D01*
X31600000Y-253989424D01*
X34400000Y-253989424D01*
X34400000Y-268189424D01*
G37*
X34400000Y-268189424D02*
X31600000Y-268189424D01*
X31600000Y-253989424D01*
X34400000Y-253989424D01*
X34400000Y-268189424D01*
X13796060Y-268197893D02*
X11196060Y-268197893D01*
X11196060Y-268197893D02*
X11196060Y-253997893D01*
X11196060Y-253997893D02*
X13796060Y-253997893D01*
X13796060Y-253997893D02*
X13796060Y-268197893D01*
G36*
X13796060Y-268197893D02*
G01*
X11196060Y-268197893D01*
X11196060Y-253997893D01*
X13796060Y-253997893D01*
X13796060Y-268197893D01*
G37*
X13796060Y-268197893D02*
X11196060Y-268197893D01*
X11196060Y-253997893D01*
X13796060Y-253997893D01*
X13796060Y-268197893D01*
X132504485Y-272189439D02*
X141235735Y-272189439D01*
X141235735Y-272189439D02*
X142029485Y-271395689D01*
X142029485Y-271395689D02*
X155523235Y-271395689D01*
X155523235Y-271395689D02*
X156316985Y-272189439D01*
X156316985Y-272189439D02*
X165048235Y-272189439D01*
X165048235Y-272189439D02*
X165841985Y-271395689D01*
X165841985Y-271395689D02*
X175366985Y-271395689D01*
X175366985Y-271395689D02*
X176160735Y-272189439D01*
X176160735Y-272189439D02*
X176160735Y-287270689D01*
X176160735Y-287270689D02*
X175366985Y-288064439D01*
X175366985Y-288064439D02*
X122185735Y-288064439D01*
X122185735Y-288064439D02*
X121391985Y-287270689D01*
X121391985Y-287270689D02*
X121391985Y-272189439D01*
X121391985Y-272189439D02*
X122185735Y-271395689D01*
X122185735Y-271395689D02*
X131710735Y-271395689D01*
X131710735Y-271395689D02*
X132504485Y-272189439D01*
G36*
X132504485Y-272189439D02*
G01*
X141235735Y-272189439D01*
X142029485Y-271395689D01*
X155523235Y-271395689D01*
X156316985Y-272189439D01*
X165048235Y-272189439D01*
X165841985Y-271395689D01*
X175366985Y-271395689D01*
X176160735Y-272189439D01*
X176160735Y-287270689D01*
X175366985Y-288064439D01*
X122185735Y-288064439D01*
X121391985Y-287270689D01*
X121391985Y-272189439D01*
X122185735Y-271395689D01*
X131710735Y-271395689D01*
X132504485Y-272189439D01*
G37*
X132504485Y-272189439D02*
X141235735Y-272189439D01*
X142029485Y-271395689D01*
X155523235Y-271395689D01*
X156316985Y-272189439D01*
X165048235Y-272189439D01*
X165841985Y-271395689D01*
X175366985Y-271395689D01*
X176160735Y-272189439D01*
X176160735Y-287270689D01*
X175366985Y-288064439D01*
X122185735Y-288064439D01*
X121391985Y-287270689D01*
X121391985Y-272189439D01*
X122185735Y-271395689D01*
X131710735Y-271395689D01*
X132504485Y-272189439D01*
D11*
%TO.C,REF\u002A\u002A*%
X225137500Y-280193750D03*
%TD*%
%TO.C,REF\u002A\u002A*%
X253712500Y-261143750D03*
%TD*%
%TO.C,REF\u002A\u002A*%
X234662500Y-261143750D03*
%TD*%
%TO.C,REF\u002A\u002A*%
X215612500Y-261143750D03*
%TD*%
%TO.C,REF\u002A\u002A*%
X196562500Y-261143750D03*
%TD*%
%TO.C,REF\u002A\u002A*%
X177512500Y-261143750D03*
%TD*%
%TO.C,REF\u002A\u002A*%
X158462500Y-261143750D03*
%TD*%
%TO.C,REF\u002A\u002A*%
X139412500Y-261143750D03*
%TD*%
%TO.C,REF\u002A\u002A*%
X120362500Y-261143750D03*
%TD*%
%TO.C,REF\u002A\u002A*%
X101312500Y-261143750D03*
%TD*%
%TO.C,REF\u002A\u002A*%
X82262500Y-261143750D03*
%TD*%
%TO.C,REF\u002A\u002A*%
X63212500Y-261143750D03*
%TD*%
%TO.C,REF\u002A\u002A*%
X44162500Y-261143750D03*
%TD*%
%TO.C,REF\u002A\u002A*%
X53687500Y-280193750D03*
%TD*%
%TO.C,REF\u002A\u002A*%
X72737500Y-280193750D03*
%TD*%
%TO.C,REF\u002A\u002A*%
X91787500Y-280193750D03*
%TD*%
%TO.C,REF\u002A\u002A*%
X110837500Y-280193750D03*
%TD*%
%TO.C,REF\u002A\u002A*%
X187037500Y-280193750D03*
%TD*%
%TO.C,REF\u002A\u002A*%
X206087500Y-280193750D03*
%TD*%
%TO.C,REF\u002A\u002A*%
X277525000Y-261143750D03*
%TD*%
%TO.C,REF\u002A\u002A*%
X22731250Y-261143750D03*
%TD*%
%TO.C,REF\u002A\u002A*%
X27493750Y-280193750D03*
%TD*%
%TO.C,REF\u002A\u002A*%
X275143750Y-242093750D03*
%TD*%
%TO.C,REF\u002A\u002A*%
X248950000Y-242093750D03*
%TD*%
%TO.C,REF\u002A\u002A*%
X229900000Y-242093750D03*
%TD*%
%TO.C,REF\u002A\u002A*%
X210850000Y-242093750D03*
%TD*%
%TO.C,REF\u002A\u002A*%
X191800000Y-242093750D03*
%TD*%
%TO.C,REF\u002A\u002A*%
X172750000Y-242093750D03*
%TD*%
%TO.C,REF\u002A\u002A*%
X153700000Y-242093750D03*
%TD*%
%TO.C,REF\u002A\u002A*%
X134650000Y-242093750D03*
%TD*%
%TO.C,REF\u002A\u002A*%
X115600000Y-242093750D03*
%TD*%
%TO.C,REF\u002A\u002A*%
X96550000Y-242093750D03*
%TD*%
%TO.C,REF\u002A\u002A*%
X77500000Y-242093750D03*
%TD*%
%TO.C,REF\u002A\u002A*%
X58450000Y-242093750D03*
%TD*%
%TO.C,REF\u002A\u002A*%
X39400000Y-242093750D03*
%TD*%
%TO.C,REF\u002A\u002A*%
X20350000Y-242093750D03*
%TD*%
%TO.C,REF\u002A\u002A*%
X244187500Y-280193750D03*
%TD*%
%TO.C,REF\u002A\u002A*%
X263237500Y-280193750D03*
%TD*%
%TO.C,REF\u002A\u002A*%
X282287500Y-280193750D03*
%TD*%
M02*
