M48
; DRILL file {KiCad (5.99.0-10847-g28909c1a72)} date Tue Jun 15 23:46:20 2021
; FORMAT={-:-/ absolute / inch / decimal}
; #@! TF.CreationDate,2021-06-15T23:46:20+03:00
; #@! TF.GenerationSoftware,Kicad,Pcbnew,(5.99.0-10847-g28909c1a72)
; #@! TF.FileFunction,NonPlated,1,2,NPTH
FMAT,2
INCH
; #@! TA.AperFunction,NonPlated,NPTH,ComponentDrill
T1C0.0256
; #@! TA.AperFunction,NonPlated,NPTH,ComponentDrill
T2C0.0689
; #@! TA.AperFunction,NonPlated,NPTH,ComponentDrill
T3C0.1200
; #@! TA.AperFunction,NonPlated,NPTH,ComponentDrill
T4C0.1570
%
G90
G05
T1
X10.73Y-2.1134
X10.9575Y-2.1134
T2
X1.1125Y-2.25
X1.2063Y-3.0
X1.3938Y-3.75
X1.5125Y-2.25
X1.6062Y-3.0
X1.7937Y-3.75
X1.8625Y-2.25
X2.05Y-3.0
X2.2625Y-2.25
X2.425Y-3.75
X2.45Y-3.0
X2.6125Y-2.25
X2.8Y-3.0
X2.825Y-3.75
X3.0125Y-2.25
X3.175Y-3.75
X3.2Y-3.0
X3.3625Y-2.25
X3.55Y-3.0
X3.575Y-3.75
X3.7625Y-2.25
X3.925Y-3.75
X3.95Y-3.0
X4.1125Y-2.25
X4.3Y-3.0
X4.325Y-3.75
X4.5125Y-2.25
X4.675Y-3.75
X4.7Y-3.0
X4.8625Y-2.25
X5.05Y-3.0
X5.075Y-3.75
X5.2625Y-2.25
X5.425Y-3.75
X5.45Y-3.0
X5.6125Y-2.25
X5.8Y-3.0
X5.8Y-3.75
X5.825Y-3.75
X6.0125Y-2.25
X6.175Y-3.75
X6.2Y-3.0
X6.2Y-3.75
X6.3625Y-2.25
X6.55Y-3.0
X6.55Y-3.75
X6.575Y-3.75
X6.7625Y-2.25
X6.925Y-3.75
X6.95Y-3.0
X6.95Y-3.75
X7.1125Y-2.25
X7.3Y-3.0
X7.325Y-3.75
X7.5125Y-2.25
X7.675Y-3.75
X7.7Y-3.0
X7.8625Y-2.25
X8.05Y-3.0
X8.075Y-3.75
X8.2625Y-2.25
X8.425Y-3.75
X8.45Y-3.0
X8.6125Y-2.25
X8.8Y-3.0
X8.825Y-3.75
X9.0125Y-2.25
X9.175Y-3.75
X9.2Y-3.0
X9.3625Y-2.25
X9.55Y-3.0
X9.575Y-3.75
X9.7625Y-2.25
X9.925Y-3.75
X9.95Y-3.0
X10.1125Y-2.25
X10.3Y-3.0
X10.325Y-3.75
X10.5125Y-2.25
X10.675Y-3.75
X10.7Y-3.0
X11.075Y-3.75
X11.1437Y-2.25
X11.2375Y-3.0
X11.425Y-3.75
X11.5437Y-2.25
X11.6375Y-3.0
X11.825Y-3.75
T3
X5.5312Y-4.025
X6.2812Y-4.025
X6.4688Y-4.025
X7.2188Y-4.025
T4
X1.3125Y-2.25
X1.4062Y-3.0
X1.5938Y-3.75
X2.0625Y-2.25
X2.25Y-3.0
X2.625Y-3.75
X2.8125Y-2.25
X3.0Y-3.0
X3.375Y-3.75
X3.5625Y-2.25
X3.75Y-3.0
X4.125Y-3.75
X4.3125Y-2.25
X4.5Y-3.0
X4.875Y-3.75
X5.0625Y-2.25
X5.25Y-3.0
X5.5312Y-3.425
X5.625Y-3.75
X5.8125Y-2.25
X6.0Y-3.0
X6.0Y-3.75
X6.2812Y-3.425
X6.375Y-3.75
X6.4688Y-3.425
X6.5625Y-2.25
X6.75Y-3.0
X6.75Y-3.75
X7.125Y-3.75
X7.2188Y-3.425
X7.3125Y-2.25
X7.5Y-3.0
X7.875Y-3.75
X8.0625Y-2.25
X8.25Y-3.0
X8.625Y-3.75
X8.8125Y-2.25
X9.0Y-3.0
X9.375Y-3.75
X9.5625Y-2.25
X9.75Y-3.0
X10.125Y-3.75
X10.3125Y-2.25
X10.5Y-3.0
X10.875Y-3.75
X11.3438Y-2.25
X11.4375Y-3.0
X11.625Y-3.75
T0
M30
