%TF.GenerationSoftware,KiCad,Pcbnew,(5.99.0-10847-g28909c1a72)*%
%TF.CreationDate,2021-06-15T23:46:12+03:00*%
%TF.ProjectId,vanpole,76616e70-6f6c-4652-9e6b-696361645f70,rev?*%
%TF.SameCoordinates,Original*%
%TF.FileFunction,Legend,Top*%
%TF.FilePolarity,Positive*%
%FSLAX46Y46*%
G04 Gerber Fmt 4.6, Leading zero omitted, Abs format (unit mm)*
G04 Created by KiCad (PCBNEW (5.99.0-10847-g28909c1a72)) date 2021-06-15 23:46:12*
%MOMM*%
%LPD*%
G01*
G04 APERTURE LIST*
%ADD10C,1.400000*%
%ADD11O,1.400000X1.400000*%
%ADD12C,3.987800*%
%ADD13C,3.048000*%
%ADD14C,1.750000*%
%ADD15C,0.750000*%
%ADD16O,1.100000X2.200000*%
%ADD17O,1.100000X1.700000*%
G04 APERTURE END LIST*
%LPC*%
D10*
%TO.C,SW1*%
X298750000Y-56135000D03*
D11*
X298750000Y-58035000D03*
%TD*%
D12*
%TO.C,MX44*%
X183356250Y-86995000D03*
X159543750Y-86995000D03*
D13*
X183356250Y-102235000D03*
X159543750Y-102235000D03*
D14*
X176530000Y-95250000D03*
X166370000Y-95250000D03*
D12*
X171450000Y-95250000D03*
%TD*%
%TO.C,MX43*%
X164306250Y-86995000D03*
X140493750Y-86995000D03*
D13*
X164306250Y-102235000D03*
X140493750Y-102235000D03*
D14*
X157480000Y-95250000D03*
X147320000Y-95250000D03*
D12*
X152400000Y-95250000D03*
%TD*%
D14*
%TO.C,MX21*%
X156845000Y-95250000D03*
X167005000Y-95250000D03*
D12*
X161925000Y-95250000D03*
%TD*%
%TO.C,MX26*%
X190500000Y-76200000D03*
D14*
X185420000Y-76200000D03*
X195580000Y-76200000D03*
%TD*%
D12*
%TO.C,MX31*%
X223837500Y-57150000D03*
D14*
X218757500Y-57150000D03*
X228917500Y-57150000D03*
%TD*%
%TO.C,MX6*%
X61595000Y-95250000D03*
D12*
X66675000Y-95250000D03*
D14*
X71755000Y-95250000D03*
%TD*%
D12*
%TO.C,MX24*%
X180975000Y-95250000D03*
D14*
X186055000Y-95250000D03*
X175895000Y-95250000D03*
%TD*%
%TO.C,MX34*%
X237807500Y-57150000D03*
D12*
X242887500Y-57150000D03*
D14*
X247967500Y-57150000D03*
%TD*%
%TO.C,MX8*%
X71120000Y-76200000D03*
D12*
X76200000Y-76200000D03*
D14*
X81280000Y-76200000D03*
%TD*%
%TO.C,MX19*%
X142557500Y-57150000D03*
X152717500Y-57150000D03*
D12*
X147637500Y-57150000D03*
%TD*%
D14*
%TO.C,MX33*%
X233045000Y-95250000D03*
D12*
X238125000Y-95250000D03*
D14*
X243205000Y-95250000D03*
%TD*%
%TO.C,MX9*%
X80645000Y-95250000D03*
X90805000Y-95250000D03*
D12*
X85725000Y-95250000D03*
%TD*%
D14*
%TO.C,MX20*%
X157480000Y-76200000D03*
X147320000Y-76200000D03*
D12*
X152400000Y-76200000D03*
%TD*%
D14*
%TO.C,MX27*%
X194945000Y-95250000D03*
D12*
X200025000Y-95250000D03*
D14*
X205105000Y-95250000D03*
%TD*%
D12*
%TO.C,MX41*%
X290512500Y-76200000D03*
D14*
X295592500Y-76200000D03*
X285432500Y-76200000D03*
%TD*%
%TO.C,MX37*%
X256857500Y-57150000D03*
X267017500Y-57150000D03*
D12*
X261937500Y-57150000D03*
%TD*%
D14*
%TO.C,MX16*%
X133667500Y-57150000D03*
X123507500Y-57150000D03*
D12*
X128587500Y-57150000D03*
%TD*%
D14*
%TO.C,MX2*%
X30638750Y-76200000D03*
D12*
X35718750Y-76200000D03*
D14*
X40798750Y-76200000D03*
%TD*%
%TO.C,MX23*%
X166370000Y-76200000D03*
X176530000Y-76200000D03*
D12*
X171450000Y-76200000D03*
%TD*%
%TO.C,MX11*%
X95250000Y-76200000D03*
D14*
X100330000Y-76200000D03*
X90170000Y-76200000D03*
%TD*%
D12*
%TO.C,MX10*%
X90487500Y-57150000D03*
D14*
X95567500Y-57150000D03*
X85407500Y-57150000D03*
%TD*%
D12*
%TO.C,MX38*%
X266700000Y-76200000D03*
D14*
X261620000Y-76200000D03*
X271780000Y-76200000D03*
%TD*%
%TO.C,MX18*%
X137795000Y-95250000D03*
D12*
X142875000Y-95250000D03*
D14*
X147955000Y-95250000D03*
%TD*%
%TO.C,MX40*%
X283051250Y-57150000D03*
D12*
X288131250Y-57150000D03*
D14*
X293211250Y-57150000D03*
%TD*%
%TO.C,MX32*%
X223520000Y-76200000D03*
D12*
X228600000Y-76200000D03*
D14*
X233680000Y-76200000D03*
%TD*%
%TO.C,MX12*%
X109855000Y-95250000D03*
D12*
X104775000Y-95250000D03*
D14*
X99695000Y-95250000D03*
%TD*%
D12*
%TO.C,MX22*%
X166687500Y-57150000D03*
D14*
X161607500Y-57150000D03*
X171767500Y-57150000D03*
%TD*%
%TO.C,MX5*%
X52070000Y-76200000D03*
D12*
X57150000Y-76200000D03*
D14*
X62230000Y-76200000D03*
%TD*%
D12*
%TO.C,MX4*%
X52387500Y-57150000D03*
D14*
X47307500Y-57150000D03*
X57467500Y-57150000D03*
%TD*%
%TO.C,MX39*%
X281305000Y-95250000D03*
X271145000Y-95250000D03*
D12*
X276225000Y-95250000D03*
%TD*%
D14*
%TO.C,MX17*%
X128270000Y-76200000D03*
D12*
X133350000Y-76200000D03*
D14*
X138430000Y-76200000D03*
%TD*%
D12*
%TO.C,MX25*%
X185737500Y-57150000D03*
D14*
X190817500Y-57150000D03*
X180657500Y-57150000D03*
%TD*%
%TO.C,MX7*%
X76517500Y-57150000D03*
D12*
X71437500Y-57150000D03*
D14*
X66357500Y-57150000D03*
%TD*%
D12*
%TO.C,MX30*%
X219075000Y-95250000D03*
D14*
X224155000Y-95250000D03*
X213995000Y-95250000D03*
%TD*%
D12*
%TO.C,MX15*%
X123825000Y-95250000D03*
D14*
X128905000Y-95250000D03*
X118745000Y-95250000D03*
%TD*%
%TO.C,MX28*%
X209867500Y-57150000D03*
D12*
X204787500Y-57150000D03*
D14*
X199707500Y-57150000D03*
%TD*%
%TO.C,MX36*%
X262255000Y-95250000D03*
D12*
X257175000Y-95250000D03*
D14*
X252095000Y-95250000D03*
%TD*%
%TO.C,MX1*%
X28257500Y-57150000D03*
X38417500Y-57150000D03*
D12*
X33337500Y-57150000D03*
%TD*%
%TO.C,MX42*%
X295275000Y-95250000D03*
D14*
X300355000Y-95250000D03*
X290195000Y-95250000D03*
%TD*%
%TO.C,MX29*%
X204470000Y-76200000D03*
X214630000Y-76200000D03*
D12*
X209550000Y-76200000D03*
%TD*%
D14*
%TO.C,MX3*%
X35401250Y-95250000D03*
X45561250Y-95250000D03*
D12*
X40481250Y-95250000D03*
%TD*%
%TO.C,MX14*%
X114300000Y-76200000D03*
D14*
X109220000Y-76200000D03*
X119380000Y-76200000D03*
%TD*%
D12*
%TO.C,MX35*%
X247650000Y-76200000D03*
D14*
X242570000Y-76200000D03*
X252730000Y-76200000D03*
%TD*%
%TO.C,MX13*%
X114617500Y-57150000D03*
D12*
X109537500Y-57150000D03*
D14*
X104457500Y-57150000D03*
%TD*%
D15*
%TO.C,USB1*%
X272541250Y-53681250D03*
X278321250Y-53681250D03*
D16*
X279751250Y-54211250D03*
D17*
X279751250Y-50031250D03*
X271111250Y-50031250D03*
D16*
X271111250Y-54211250D03*
%TD*%
M02*
