%TF.GenerationSoftware,KiCad,Pcbnew,(5.99.0-10847-g28909c1a72)*%
%TF.CreationDate,2021-06-15T23:46:12+03:00*%
%TF.ProjectId,vanpole,76616e70-6f6c-4652-9e6b-696361645f70,rev?*%
%TF.SameCoordinates,Original*%
%TF.FileFunction,Legend,Bot*%
%TF.FilePolarity,Positive*%
%FSLAX46Y46*%
G04 Gerber Fmt 4.6, Leading zero omitted, Abs format (unit mm)*
G04 Created by KiCad (PCBNEW (5.99.0-10847-g28909c1a72)) date 2021-06-15 23:46:12*
%MOMM*%
%LPD*%
G01*
G04 APERTURE LIST*
G04 Aperture macros list*
%AMRoundRect*
0 Rectangle with rounded corners*
0 $1 Rounding radius*
0 $2 $3 $4 $5 $6 $7 $8 $9 X,Y pos of 4 corners*
0 Add a 4 corners polygon primitive as box body*
4,1,4,$2,$3,$4,$5,$6,$7,$8,$9,$2,$3,0*
0 Add four circle primitives for the rounded corners*
1,1,$1+$1,$2,$3*
1,1,$1+$1,$4,$5*
1,1,$1+$1,$6,$7*
1,1,$1+$1,$8,$9*
0 Add four rect primitives between the rounded corners*
20,1,$1+$1,$2,$3,$4,$5,0*
20,1,$1+$1,$4,$5,$6,$7,0*
20,1,$1+$1,$6,$7,$8,$9,0*
20,1,$1+$1,$8,$9,$2,$3,0*%
%AMRotRect*
0 Rectangle, with rotation*
0 The origin of the aperture is its center*
0 $1 length*
0 $2 width*
0 $3 Rotation angle, in degrees counterclockwise*
0 Add horizontal line*
21,1,$1,$2,0,0,$3*%
G04 Aperture macros list end*
%ADD10C,0.250000*%
%ADD11C,2.000000*%
%ADD12C,0.150000*%
%ADD13C,0.120000*%
%ADD14RotRect,0.400000X1.900000X45.000000*%
%ADD15RoundRect,0.062500X0.291682X0.380070X-0.380070X-0.291682X-0.291682X-0.380070X0.380070X0.291682X0*%
%ADD16RoundRect,0.062500X-0.291682X0.380070X-0.380070X0.291682X0.291682X-0.380070X0.380070X-0.291682X0*%
%ADD17RotRect,5.200000X5.200000X225.000000*%
%ADD18C,1.400000*%
%ADD19O,1.400000X1.400000*%
%ADD20RoundRect,0.135000X0.135000X0.185000X-0.135000X0.185000X-0.135000X-0.185000X0.135000X-0.185000X0*%
%ADD21RoundRect,0.135000X-0.135000X-0.185000X0.135000X-0.185000X0.135000X0.185000X-0.135000X0.185000X0*%
%ADD22RoundRect,0.135000X0.185000X-0.135000X0.185000X0.135000X-0.185000X0.135000X-0.185000X-0.135000X0*%
%ADD23RoundRect,0.135000X-0.185000X0.135000X-0.185000X-0.135000X0.185000X-0.135000X0.185000X0.135000X0*%
%ADD24C,3.987800*%
%ADD25C,3.048000*%
%ADD26C,1.750000*%
%ADD27C,2.250000*%
%ADD28RoundRect,0.243750X-0.456250X0.243750X-0.456250X-0.243750X0.456250X-0.243750X0.456250X0.243750X0*%
%ADD29R,1.200000X0.900000*%
%ADD30R,1.400000X1.200000*%
%ADD31R,1.400000X1.000000*%
%ADD32RoundRect,0.140000X0.021213X-0.219203X0.219203X-0.021213X-0.021213X0.219203X-0.219203X0.021213X0*%
%ADD33RoundRect,0.140000X0.170000X-0.140000X0.170000X0.140000X-0.170000X0.140000X-0.170000X-0.140000X0*%
%ADD34RoundRect,0.140000X-0.140000X-0.170000X0.140000X-0.170000X0.140000X0.170000X-0.140000X0.170000X0*%
%ADD35RoundRect,0.140000X0.140000X0.170000X-0.140000X0.170000X-0.140000X-0.170000X0.140000X-0.170000X0*%
%ADD36C,0.750000*%
%ADD37RoundRect,0.050000X-0.300000X-0.725000X0.300000X-0.725000X0.300000X0.725000X-0.300000X0.725000X0*%
%ADD38RoundRect,0.050000X-0.150000X-0.725000X0.150000X-0.725000X0.150000X0.725000X-0.150000X0.725000X0*%
%ADD39O,1.100000X2.200000*%
%ADD40O,1.100000X1.700000*%
G04 APERTURE END LIST*
D10*
X276285714Y-52322380D02*
X276285714Y-51322380D01*
X276047619Y-51322380D01*
X275904761Y-51370000D01*
X275809523Y-51465238D01*
X275761904Y-51560476D01*
X275714285Y-51750952D01*
X275714285Y-51893809D01*
X275761904Y-52084285D01*
X275809523Y-52179523D01*
X275904761Y-52274761D01*
X276047619Y-52322380D01*
X276285714Y-52322380D01*
X275285714Y-52322380D02*
X275285714Y-51322380D01*
X274714285Y-52322380D01*
X274714285Y-51322380D01*
D11*
X288453571Y-53725238D02*
X280120238Y-93725238D01*
X261786904Y-53725238D01*
X253929761Y-82296666D02*
X234882142Y-82296666D01*
X259167857Y-93725238D02*
X240834523Y-53725238D01*
X232501190Y-93725238D01*
X219167857Y-93725238D02*
X214167857Y-53725238D01*
X196310714Y-93725238D01*
X191310714Y-53725238D01*
X177263095Y-93725238D02*
X172263095Y-53725238D01*
X157025000Y-53725238D01*
X153453571Y-55630000D01*
X151786904Y-57534761D01*
X150358333Y-61344285D01*
X151072619Y-67058571D01*
X153453571Y-70868095D01*
X155596428Y-72772857D01*
X159644047Y-74677619D01*
X174882142Y-74677619D01*
X124644047Y-53725238D02*
X117025000Y-53725238D01*
X113453571Y-55630000D01*
X110120238Y-59439523D01*
X109167857Y-67058571D01*
X110834523Y-80391904D01*
X113691666Y-88010952D01*
X117977380Y-91820476D01*
X122025000Y-93725238D01*
X129644047Y-93725238D01*
X133215476Y-91820476D01*
X136548809Y-88010952D01*
X137501190Y-80391904D01*
X135834523Y-67058571D01*
X132977380Y-59439523D01*
X128691666Y-55630000D01*
X124644047Y-53725238D01*
X76310714Y-93725238D02*
X95358333Y-93725238D01*
X90358333Y-53725238D01*
X60358333Y-72772857D02*
X47025000Y-72772857D01*
X43929761Y-93725238D02*
X62977380Y-93725238D01*
X57977380Y-53725238D01*
X38929761Y-53725238D01*
D12*
%TO.C,Y1*%
X287594095Y-88350660D02*
X287930813Y-88687378D01*
X287459408Y-87744569D02*
X287594095Y-88350660D01*
X286988004Y-88215973D01*
X287089019Y-89529171D02*
X287493080Y-89125110D01*
X287291049Y-89327141D02*
X286583943Y-88620034D01*
X286752301Y-88653706D01*
X286886988Y-88653706D01*
X286988004Y-88620034D01*
%TO.C,U1*%
X275323267Y-76845771D02*
X275895687Y-77418191D01*
X275929359Y-77519206D01*
X275929359Y-77586550D01*
X275895687Y-77687565D01*
X275761000Y-77822252D01*
X275659985Y-77855924D01*
X275592641Y-77855924D01*
X275491626Y-77822252D01*
X274919206Y-77249832D01*
X274919206Y-78664046D02*
X275323267Y-78259985D01*
X275121237Y-78462015D02*
X274414130Y-77754909D01*
X274582489Y-77788580D01*
X274717176Y-77788580D01*
X274818191Y-77754909D01*
%TO.C,SW1*%
X297234761Y-55751666D02*
X297282380Y-55894523D01*
X297282380Y-56132619D01*
X297234761Y-56227857D01*
X297187142Y-56275476D01*
X297091904Y-56323095D01*
X296996666Y-56323095D01*
X296901428Y-56275476D01*
X296853809Y-56227857D01*
X296806190Y-56132619D01*
X296758571Y-55942142D01*
X296710952Y-55846904D01*
X296663333Y-55799285D01*
X296568095Y-55751666D01*
X296472857Y-55751666D01*
X296377619Y-55799285D01*
X296330000Y-55846904D01*
X296282380Y-55942142D01*
X296282380Y-56180238D01*
X296330000Y-56323095D01*
X296282380Y-56656428D02*
X297282380Y-56894523D01*
X296568095Y-57085000D01*
X297282380Y-57275476D01*
X296282380Y-57513571D01*
X297282380Y-58418333D02*
X297282380Y-57846904D01*
X297282380Y-58132619D02*
X296282380Y-58132619D01*
X296425238Y-58037380D01*
X296520476Y-57942142D01*
X296568095Y-57846904D01*
%TO.C,R_USB2*%
X273187619Y-57312380D02*
X273520952Y-56836190D01*
X273759047Y-57312380D02*
X273759047Y-56312380D01*
X273378095Y-56312380D01*
X273282857Y-56360000D01*
X273235238Y-56407619D01*
X273187619Y-56502857D01*
X273187619Y-56645714D01*
X273235238Y-56740952D01*
X273282857Y-56788571D01*
X273378095Y-56836190D01*
X273759047Y-56836190D01*
X272997142Y-57407619D02*
X272235238Y-57407619D01*
X271997142Y-56312380D02*
X271997142Y-57121904D01*
X271949523Y-57217142D01*
X271901904Y-57264761D01*
X271806666Y-57312380D01*
X271616190Y-57312380D01*
X271520952Y-57264761D01*
X271473333Y-57217142D01*
X271425714Y-57121904D01*
X271425714Y-56312380D01*
X270997142Y-57264761D02*
X270854285Y-57312380D01*
X270616190Y-57312380D01*
X270520952Y-57264761D01*
X270473333Y-57217142D01*
X270425714Y-57121904D01*
X270425714Y-57026666D01*
X270473333Y-56931428D01*
X270520952Y-56883809D01*
X270616190Y-56836190D01*
X270806666Y-56788571D01*
X270901904Y-56740952D01*
X270949523Y-56693333D01*
X270997142Y-56598095D01*
X270997142Y-56502857D01*
X270949523Y-56407619D01*
X270901904Y-56360000D01*
X270806666Y-56312380D01*
X270568571Y-56312380D01*
X270425714Y-56360000D01*
X269663809Y-56788571D02*
X269520952Y-56836190D01*
X269473333Y-56883809D01*
X269425714Y-56979047D01*
X269425714Y-57121904D01*
X269473333Y-57217142D01*
X269520952Y-57264761D01*
X269616190Y-57312380D01*
X269997142Y-57312380D01*
X269997142Y-56312380D01*
X269663809Y-56312380D01*
X269568571Y-56360000D01*
X269520952Y-56407619D01*
X269473333Y-56502857D01*
X269473333Y-56598095D01*
X269520952Y-56693333D01*
X269568571Y-56740952D01*
X269663809Y-56788571D01*
X269997142Y-56788571D01*
X269044761Y-56407619D02*
X268997142Y-56360000D01*
X268901904Y-56312380D01*
X268663809Y-56312380D01*
X268568571Y-56360000D01*
X268520952Y-56407619D01*
X268473333Y-56502857D01*
X268473333Y-56598095D01*
X268520952Y-56740952D01*
X269092380Y-57312380D01*
X268473333Y-57312380D01*
%TO.C,R_USB1*%
X282297619Y-59652380D02*
X282630952Y-59176190D01*
X282869047Y-59652380D02*
X282869047Y-58652380D01*
X282488095Y-58652380D01*
X282392857Y-58700000D01*
X282345238Y-58747619D01*
X282297619Y-58842857D01*
X282297619Y-58985714D01*
X282345238Y-59080952D01*
X282392857Y-59128571D01*
X282488095Y-59176190D01*
X282869047Y-59176190D01*
X282107142Y-59747619D02*
X281345238Y-59747619D01*
X281107142Y-58652380D02*
X281107142Y-59461904D01*
X281059523Y-59557142D01*
X281011904Y-59604761D01*
X280916666Y-59652380D01*
X280726190Y-59652380D01*
X280630952Y-59604761D01*
X280583333Y-59557142D01*
X280535714Y-59461904D01*
X280535714Y-58652380D01*
X280107142Y-59604761D02*
X279964285Y-59652380D01*
X279726190Y-59652380D01*
X279630952Y-59604761D01*
X279583333Y-59557142D01*
X279535714Y-59461904D01*
X279535714Y-59366666D01*
X279583333Y-59271428D01*
X279630952Y-59223809D01*
X279726190Y-59176190D01*
X279916666Y-59128571D01*
X280011904Y-59080952D01*
X280059523Y-59033333D01*
X280107142Y-58938095D01*
X280107142Y-58842857D01*
X280059523Y-58747619D01*
X280011904Y-58700000D01*
X279916666Y-58652380D01*
X279678571Y-58652380D01*
X279535714Y-58700000D01*
X278773809Y-59128571D02*
X278630952Y-59176190D01*
X278583333Y-59223809D01*
X278535714Y-59319047D01*
X278535714Y-59461904D01*
X278583333Y-59557142D01*
X278630952Y-59604761D01*
X278726190Y-59652380D01*
X279107142Y-59652380D01*
X279107142Y-58652380D01*
X278773809Y-58652380D01*
X278678571Y-58700000D01*
X278630952Y-58747619D01*
X278583333Y-58842857D01*
X278583333Y-58938095D01*
X278630952Y-59033333D01*
X278678571Y-59080952D01*
X278773809Y-59128571D01*
X279107142Y-59128571D01*
X277583333Y-59652380D02*
X278154761Y-59652380D01*
X277869047Y-59652380D02*
X277869047Y-58652380D01*
X277964285Y-58795238D01*
X278059523Y-58890476D01*
X278154761Y-58938095D01*
%TO.C,R_RST1*%
X289542380Y-82275238D02*
X289066190Y-81941904D01*
X289542380Y-81703809D02*
X288542380Y-81703809D01*
X288542380Y-82084761D01*
X288590000Y-82180000D01*
X288637619Y-82227619D01*
X288732857Y-82275238D01*
X288875714Y-82275238D01*
X288970952Y-82227619D01*
X289018571Y-82180000D01*
X289066190Y-82084761D01*
X289066190Y-81703809D01*
X289637619Y-82465714D02*
X289637619Y-83227619D01*
X289542380Y-84037142D02*
X289066190Y-83703809D01*
X289542380Y-83465714D02*
X288542380Y-83465714D01*
X288542380Y-83846666D01*
X288590000Y-83941904D01*
X288637619Y-83989523D01*
X288732857Y-84037142D01*
X288875714Y-84037142D01*
X288970952Y-83989523D01*
X289018571Y-83941904D01*
X289066190Y-83846666D01*
X289066190Y-83465714D01*
X289494761Y-84418095D02*
X289542380Y-84560952D01*
X289542380Y-84799047D01*
X289494761Y-84894285D01*
X289447142Y-84941904D01*
X289351904Y-84989523D01*
X289256666Y-84989523D01*
X289161428Y-84941904D01*
X289113809Y-84894285D01*
X289066190Y-84799047D01*
X289018571Y-84608571D01*
X288970952Y-84513333D01*
X288923333Y-84465714D01*
X288828095Y-84418095D01*
X288732857Y-84418095D01*
X288637619Y-84465714D01*
X288590000Y-84513333D01*
X288542380Y-84608571D01*
X288542380Y-84846666D01*
X288590000Y-84989523D01*
X288542380Y-85275238D02*
X288542380Y-85846666D01*
X289542380Y-85560952D02*
X288542380Y-85560952D01*
X289542380Y-86703809D02*
X289542380Y-86132380D01*
X289542380Y-86418095D02*
X288542380Y-86418095D01*
X288685238Y-86322857D01*
X288780476Y-86227619D01*
X288828095Y-86132380D01*
%TO.C,R_HWB1*%
X272772380Y-79037142D02*
X272296190Y-78703809D01*
X272772380Y-78465714D02*
X271772380Y-78465714D01*
X271772380Y-78846666D01*
X271820000Y-78941904D01*
X271867619Y-78989523D01*
X271962857Y-79037142D01*
X272105714Y-79037142D01*
X272200952Y-78989523D01*
X272248571Y-78941904D01*
X272296190Y-78846666D01*
X272296190Y-78465714D01*
X272867619Y-79227619D02*
X272867619Y-79989523D01*
X272772380Y-80227619D02*
X271772380Y-80227619D01*
X272248571Y-80227619D02*
X272248571Y-80799047D01*
X272772380Y-80799047D02*
X271772380Y-80799047D01*
X271772380Y-81180000D02*
X272772380Y-81418095D01*
X272058095Y-81608571D01*
X272772380Y-81799047D01*
X271772380Y-82037142D01*
X272248571Y-82751428D02*
X272296190Y-82894285D01*
X272343809Y-82941904D01*
X272439047Y-82989523D01*
X272581904Y-82989523D01*
X272677142Y-82941904D01*
X272724761Y-82894285D01*
X272772380Y-82799047D01*
X272772380Y-82418095D01*
X271772380Y-82418095D01*
X271772380Y-82751428D01*
X271820000Y-82846666D01*
X271867619Y-82894285D01*
X271962857Y-82941904D01*
X272058095Y-82941904D01*
X272153333Y-82894285D01*
X272200952Y-82846666D01*
X272248571Y-82751428D01*
X272248571Y-82418095D01*
X272772380Y-83941904D02*
X272772380Y-83370476D01*
X272772380Y-83656190D02*
X271772380Y-83656190D01*
X271915238Y-83560952D01*
X272010476Y-83465714D01*
X272058095Y-83370476D01*
%TO.C,R_DATA2*%
X275972380Y-67284285D02*
X275496190Y-66950952D01*
X275972380Y-66712857D02*
X274972380Y-66712857D01*
X274972380Y-67093809D01*
X275020000Y-67189047D01*
X275067619Y-67236666D01*
X275162857Y-67284285D01*
X275305714Y-67284285D01*
X275400952Y-67236666D01*
X275448571Y-67189047D01*
X275496190Y-67093809D01*
X275496190Y-66712857D01*
X276067619Y-67474761D02*
X276067619Y-68236666D01*
X275972380Y-68474761D02*
X274972380Y-68474761D01*
X274972380Y-68712857D01*
X275020000Y-68855714D01*
X275115238Y-68950952D01*
X275210476Y-68998571D01*
X275400952Y-69046190D01*
X275543809Y-69046190D01*
X275734285Y-68998571D01*
X275829523Y-68950952D01*
X275924761Y-68855714D01*
X275972380Y-68712857D01*
X275972380Y-68474761D01*
X275686666Y-69427142D02*
X275686666Y-69903333D01*
X275972380Y-69331904D02*
X274972380Y-69665238D01*
X275972380Y-69998571D01*
X274972380Y-70189047D02*
X274972380Y-70760476D01*
X275972380Y-70474761D02*
X274972380Y-70474761D01*
X275686666Y-71046190D02*
X275686666Y-71522380D01*
X275972380Y-70950952D02*
X274972380Y-71284285D01*
X275972380Y-71617619D01*
X275067619Y-71903333D02*
X275020000Y-71950952D01*
X274972380Y-72046190D01*
X274972380Y-72284285D01*
X275020000Y-72379523D01*
X275067619Y-72427142D01*
X275162857Y-72474761D01*
X275258095Y-72474761D01*
X275400952Y-72427142D01*
X275972380Y-71855714D01*
X275972380Y-72474761D01*
%TO.C,R_DATA1*%
X277112380Y-67264285D02*
X276636190Y-66930952D01*
X277112380Y-66692857D02*
X276112380Y-66692857D01*
X276112380Y-67073809D01*
X276160000Y-67169047D01*
X276207619Y-67216666D01*
X276302857Y-67264285D01*
X276445714Y-67264285D01*
X276540952Y-67216666D01*
X276588571Y-67169047D01*
X276636190Y-67073809D01*
X276636190Y-66692857D01*
X277207619Y-67454761D02*
X277207619Y-68216666D01*
X277112380Y-68454761D02*
X276112380Y-68454761D01*
X276112380Y-68692857D01*
X276160000Y-68835714D01*
X276255238Y-68930952D01*
X276350476Y-68978571D01*
X276540952Y-69026190D01*
X276683809Y-69026190D01*
X276874285Y-68978571D01*
X276969523Y-68930952D01*
X277064761Y-68835714D01*
X277112380Y-68692857D01*
X277112380Y-68454761D01*
X276826666Y-69407142D02*
X276826666Y-69883333D01*
X277112380Y-69311904D02*
X276112380Y-69645238D01*
X277112380Y-69978571D01*
X276112380Y-70169047D02*
X276112380Y-70740476D01*
X277112380Y-70454761D02*
X276112380Y-70454761D01*
X276826666Y-71026190D02*
X276826666Y-71502380D01*
X277112380Y-70930952D02*
X276112380Y-71264285D01*
X277112380Y-71597619D01*
X277112380Y-72454761D02*
X277112380Y-71883333D01*
X277112380Y-72169047D02*
X276112380Y-72169047D01*
X276255238Y-72073809D01*
X276350476Y-71978571D01*
X276398095Y-71883333D01*
%TO.C,F1*%
X278618571Y-60916666D02*
X278618571Y-60583333D01*
X279142380Y-60583333D02*
X278142380Y-60583333D01*
X278142380Y-61059523D01*
X279142380Y-61964285D02*
X279142380Y-61392857D01*
X279142380Y-61678571D02*
X278142380Y-61678571D01*
X278285238Y-61583333D01*
X278380476Y-61488095D01*
X278428095Y-61392857D01*
%TO.C,D43*%
X300822380Y-94035714D02*
X299822380Y-94035714D01*
X299822380Y-94273809D01*
X299870000Y-94416666D01*
X299965238Y-94511904D01*
X300060476Y-94559523D01*
X300250952Y-94607142D01*
X300393809Y-94607142D01*
X300584285Y-94559523D01*
X300679523Y-94511904D01*
X300774761Y-94416666D01*
X300822380Y-94273809D01*
X300822380Y-94035714D01*
X300155714Y-95464285D02*
X300822380Y-95464285D01*
X299774761Y-95226190D02*
X300489047Y-94988095D01*
X300489047Y-95607142D01*
X299822380Y-95892857D02*
X299822380Y-96511904D01*
X300203333Y-96178571D01*
X300203333Y-96321428D01*
X300250952Y-96416666D01*
X300298571Y-96464285D01*
X300393809Y-96511904D01*
X300631904Y-96511904D01*
X300727142Y-96464285D01*
X300774761Y-96416666D01*
X300822380Y-96321428D01*
X300822380Y-96035714D01*
X300774761Y-95940476D01*
X300727142Y-95892857D01*
%TO.C,D42*%
X296062380Y-74995714D02*
X295062380Y-74995714D01*
X295062380Y-75233809D01*
X295110000Y-75376666D01*
X295205238Y-75471904D01*
X295300476Y-75519523D01*
X295490952Y-75567142D01*
X295633809Y-75567142D01*
X295824285Y-75519523D01*
X295919523Y-75471904D01*
X296014761Y-75376666D01*
X296062380Y-75233809D01*
X296062380Y-74995714D01*
X295395714Y-76424285D02*
X296062380Y-76424285D01*
X295014761Y-76186190D02*
X295729047Y-75948095D01*
X295729047Y-76567142D01*
X295157619Y-76900476D02*
X295110000Y-76948095D01*
X295062380Y-77043333D01*
X295062380Y-77281428D01*
X295110000Y-77376666D01*
X295157619Y-77424285D01*
X295252857Y-77471904D01*
X295348095Y-77471904D01*
X295490952Y-77424285D01*
X296062380Y-76852857D01*
X296062380Y-77471904D01*
%TO.C,D41*%
X293682380Y-55915714D02*
X292682380Y-55915714D01*
X292682380Y-56153809D01*
X292730000Y-56296666D01*
X292825238Y-56391904D01*
X292920476Y-56439523D01*
X293110952Y-56487142D01*
X293253809Y-56487142D01*
X293444285Y-56439523D01*
X293539523Y-56391904D01*
X293634761Y-56296666D01*
X293682380Y-56153809D01*
X293682380Y-55915714D01*
X293015714Y-57344285D02*
X293682380Y-57344285D01*
X292634761Y-57106190D02*
X293349047Y-56868095D01*
X293349047Y-57487142D01*
X293682380Y-58391904D02*
X293682380Y-57820476D01*
X293682380Y-58106190D02*
X292682380Y-58106190D01*
X292825238Y-58010952D01*
X292920476Y-57915714D01*
X292968095Y-57820476D01*
%TO.C,D40*%
X281782380Y-94055714D02*
X280782380Y-94055714D01*
X280782380Y-94293809D01*
X280830000Y-94436666D01*
X280925238Y-94531904D01*
X281020476Y-94579523D01*
X281210952Y-94627142D01*
X281353809Y-94627142D01*
X281544285Y-94579523D01*
X281639523Y-94531904D01*
X281734761Y-94436666D01*
X281782380Y-94293809D01*
X281782380Y-94055714D01*
X281115714Y-95484285D02*
X281782380Y-95484285D01*
X280734761Y-95246190D02*
X281449047Y-95008095D01*
X281449047Y-95627142D01*
X280782380Y-96198571D02*
X280782380Y-96293809D01*
X280830000Y-96389047D01*
X280877619Y-96436666D01*
X280972857Y-96484285D01*
X281163333Y-96531904D01*
X281401428Y-96531904D01*
X281591904Y-96484285D01*
X281687142Y-96436666D01*
X281734761Y-96389047D01*
X281782380Y-96293809D01*
X281782380Y-96198571D01*
X281734761Y-96103333D01*
X281687142Y-96055714D01*
X281591904Y-96008095D01*
X281401428Y-95960476D01*
X281163333Y-95960476D01*
X280972857Y-96008095D01*
X280877619Y-96055714D01*
X280830000Y-96103333D01*
X280782380Y-96198571D01*
%TO.C,D39*%
X272262380Y-74995714D02*
X271262380Y-74995714D01*
X271262380Y-75233809D01*
X271310000Y-75376666D01*
X271405238Y-75471904D01*
X271500476Y-75519523D01*
X271690952Y-75567142D01*
X271833809Y-75567142D01*
X272024285Y-75519523D01*
X272119523Y-75471904D01*
X272214761Y-75376666D01*
X272262380Y-75233809D01*
X272262380Y-74995714D01*
X271262380Y-75900476D02*
X271262380Y-76519523D01*
X271643333Y-76186190D01*
X271643333Y-76329047D01*
X271690952Y-76424285D01*
X271738571Y-76471904D01*
X271833809Y-76519523D01*
X272071904Y-76519523D01*
X272167142Y-76471904D01*
X272214761Y-76424285D01*
X272262380Y-76329047D01*
X272262380Y-76043333D01*
X272214761Y-75948095D01*
X272167142Y-75900476D01*
X272262380Y-76995714D02*
X272262380Y-77186190D01*
X272214761Y-77281428D01*
X272167142Y-77329047D01*
X272024285Y-77424285D01*
X271833809Y-77471904D01*
X271452857Y-77471904D01*
X271357619Y-77424285D01*
X271310000Y-77376666D01*
X271262380Y-77281428D01*
X271262380Y-77090952D01*
X271310000Y-76995714D01*
X271357619Y-76948095D01*
X271452857Y-76900476D01*
X271690952Y-76900476D01*
X271786190Y-76948095D01*
X271833809Y-76995714D01*
X271881428Y-77090952D01*
X271881428Y-77281428D01*
X271833809Y-77376666D01*
X271786190Y-77424285D01*
X271690952Y-77471904D01*
%TO.C,D38*%
X267492380Y-55935714D02*
X266492380Y-55935714D01*
X266492380Y-56173809D01*
X266540000Y-56316666D01*
X266635238Y-56411904D01*
X266730476Y-56459523D01*
X266920952Y-56507142D01*
X267063809Y-56507142D01*
X267254285Y-56459523D01*
X267349523Y-56411904D01*
X267444761Y-56316666D01*
X267492380Y-56173809D01*
X267492380Y-55935714D01*
X266492380Y-56840476D02*
X266492380Y-57459523D01*
X266873333Y-57126190D01*
X266873333Y-57269047D01*
X266920952Y-57364285D01*
X266968571Y-57411904D01*
X267063809Y-57459523D01*
X267301904Y-57459523D01*
X267397142Y-57411904D01*
X267444761Y-57364285D01*
X267492380Y-57269047D01*
X267492380Y-56983333D01*
X267444761Y-56888095D01*
X267397142Y-56840476D01*
X266920952Y-58030952D02*
X266873333Y-57935714D01*
X266825714Y-57888095D01*
X266730476Y-57840476D01*
X266682857Y-57840476D01*
X266587619Y-57888095D01*
X266540000Y-57935714D01*
X266492380Y-58030952D01*
X266492380Y-58221428D01*
X266540000Y-58316666D01*
X266587619Y-58364285D01*
X266682857Y-58411904D01*
X266730476Y-58411904D01*
X266825714Y-58364285D01*
X266873333Y-58316666D01*
X266920952Y-58221428D01*
X266920952Y-58030952D01*
X266968571Y-57935714D01*
X267016190Y-57888095D01*
X267111428Y-57840476D01*
X267301904Y-57840476D01*
X267397142Y-57888095D01*
X267444761Y-57935714D01*
X267492380Y-58030952D01*
X267492380Y-58221428D01*
X267444761Y-58316666D01*
X267397142Y-58364285D01*
X267301904Y-58411904D01*
X267111428Y-58411904D01*
X267016190Y-58364285D01*
X266968571Y-58316666D01*
X266920952Y-58221428D01*
%TO.C,D37*%
X262732380Y-94035714D02*
X261732380Y-94035714D01*
X261732380Y-94273809D01*
X261780000Y-94416666D01*
X261875238Y-94511904D01*
X261970476Y-94559523D01*
X262160952Y-94607142D01*
X262303809Y-94607142D01*
X262494285Y-94559523D01*
X262589523Y-94511904D01*
X262684761Y-94416666D01*
X262732380Y-94273809D01*
X262732380Y-94035714D01*
X261732380Y-94940476D02*
X261732380Y-95559523D01*
X262113333Y-95226190D01*
X262113333Y-95369047D01*
X262160952Y-95464285D01*
X262208571Y-95511904D01*
X262303809Y-95559523D01*
X262541904Y-95559523D01*
X262637142Y-95511904D01*
X262684761Y-95464285D01*
X262732380Y-95369047D01*
X262732380Y-95083333D01*
X262684761Y-94988095D01*
X262637142Y-94940476D01*
X261732380Y-95892857D02*
X261732380Y-96559523D01*
X262732380Y-96130952D01*
%TO.C,D36*%
X253202380Y-74975714D02*
X252202380Y-74975714D01*
X252202380Y-75213809D01*
X252250000Y-75356666D01*
X252345238Y-75451904D01*
X252440476Y-75499523D01*
X252630952Y-75547142D01*
X252773809Y-75547142D01*
X252964285Y-75499523D01*
X253059523Y-75451904D01*
X253154761Y-75356666D01*
X253202380Y-75213809D01*
X253202380Y-74975714D01*
X252202380Y-75880476D02*
X252202380Y-76499523D01*
X252583333Y-76166190D01*
X252583333Y-76309047D01*
X252630952Y-76404285D01*
X252678571Y-76451904D01*
X252773809Y-76499523D01*
X253011904Y-76499523D01*
X253107142Y-76451904D01*
X253154761Y-76404285D01*
X253202380Y-76309047D01*
X253202380Y-76023333D01*
X253154761Y-75928095D01*
X253107142Y-75880476D01*
X252202380Y-77356666D02*
X252202380Y-77166190D01*
X252250000Y-77070952D01*
X252297619Y-77023333D01*
X252440476Y-76928095D01*
X252630952Y-76880476D01*
X253011904Y-76880476D01*
X253107142Y-76928095D01*
X253154761Y-76975714D01*
X253202380Y-77070952D01*
X253202380Y-77261428D01*
X253154761Y-77356666D01*
X253107142Y-77404285D01*
X253011904Y-77451904D01*
X252773809Y-77451904D01*
X252678571Y-77404285D01*
X252630952Y-77356666D01*
X252583333Y-77261428D01*
X252583333Y-77070952D01*
X252630952Y-76975714D01*
X252678571Y-76928095D01*
X252773809Y-76880476D01*
%TO.C,D35*%
X248442380Y-55905714D02*
X247442380Y-55905714D01*
X247442380Y-56143809D01*
X247490000Y-56286666D01*
X247585238Y-56381904D01*
X247680476Y-56429523D01*
X247870952Y-56477142D01*
X248013809Y-56477142D01*
X248204285Y-56429523D01*
X248299523Y-56381904D01*
X248394761Y-56286666D01*
X248442380Y-56143809D01*
X248442380Y-55905714D01*
X247442380Y-56810476D02*
X247442380Y-57429523D01*
X247823333Y-57096190D01*
X247823333Y-57239047D01*
X247870952Y-57334285D01*
X247918571Y-57381904D01*
X248013809Y-57429523D01*
X248251904Y-57429523D01*
X248347142Y-57381904D01*
X248394761Y-57334285D01*
X248442380Y-57239047D01*
X248442380Y-56953333D01*
X248394761Y-56858095D01*
X248347142Y-56810476D01*
X247442380Y-58334285D02*
X247442380Y-57858095D01*
X247918571Y-57810476D01*
X247870952Y-57858095D01*
X247823333Y-57953333D01*
X247823333Y-58191428D01*
X247870952Y-58286666D01*
X247918571Y-58334285D01*
X248013809Y-58381904D01*
X248251904Y-58381904D01*
X248347142Y-58334285D01*
X248394761Y-58286666D01*
X248442380Y-58191428D01*
X248442380Y-57953333D01*
X248394761Y-57858095D01*
X248347142Y-57810476D01*
%TO.C,D34*%
X243682380Y-94045714D02*
X242682380Y-94045714D01*
X242682380Y-94283809D01*
X242730000Y-94426666D01*
X242825238Y-94521904D01*
X242920476Y-94569523D01*
X243110952Y-94617142D01*
X243253809Y-94617142D01*
X243444285Y-94569523D01*
X243539523Y-94521904D01*
X243634761Y-94426666D01*
X243682380Y-94283809D01*
X243682380Y-94045714D01*
X242682380Y-94950476D02*
X242682380Y-95569523D01*
X243063333Y-95236190D01*
X243063333Y-95379047D01*
X243110952Y-95474285D01*
X243158571Y-95521904D01*
X243253809Y-95569523D01*
X243491904Y-95569523D01*
X243587142Y-95521904D01*
X243634761Y-95474285D01*
X243682380Y-95379047D01*
X243682380Y-95093333D01*
X243634761Y-94998095D01*
X243587142Y-94950476D01*
X243015714Y-96426666D02*
X243682380Y-96426666D01*
X242634761Y-96188571D02*
X243349047Y-95950476D01*
X243349047Y-96569523D01*
%TO.C,D33*%
X234152380Y-74985714D02*
X233152380Y-74985714D01*
X233152380Y-75223809D01*
X233200000Y-75366666D01*
X233295238Y-75461904D01*
X233390476Y-75509523D01*
X233580952Y-75557142D01*
X233723809Y-75557142D01*
X233914285Y-75509523D01*
X234009523Y-75461904D01*
X234104761Y-75366666D01*
X234152380Y-75223809D01*
X234152380Y-74985714D01*
X233152380Y-75890476D02*
X233152380Y-76509523D01*
X233533333Y-76176190D01*
X233533333Y-76319047D01*
X233580952Y-76414285D01*
X233628571Y-76461904D01*
X233723809Y-76509523D01*
X233961904Y-76509523D01*
X234057142Y-76461904D01*
X234104761Y-76414285D01*
X234152380Y-76319047D01*
X234152380Y-76033333D01*
X234104761Y-75938095D01*
X234057142Y-75890476D01*
X233152380Y-76842857D02*
X233152380Y-77461904D01*
X233533333Y-77128571D01*
X233533333Y-77271428D01*
X233580952Y-77366666D01*
X233628571Y-77414285D01*
X233723809Y-77461904D01*
X233961904Y-77461904D01*
X234057142Y-77414285D01*
X234104761Y-77366666D01*
X234152380Y-77271428D01*
X234152380Y-76985714D01*
X234104761Y-76890476D01*
X234057142Y-76842857D01*
%TO.C,D32*%
X229392380Y-55905714D02*
X228392380Y-55905714D01*
X228392380Y-56143809D01*
X228440000Y-56286666D01*
X228535238Y-56381904D01*
X228630476Y-56429523D01*
X228820952Y-56477142D01*
X228963809Y-56477142D01*
X229154285Y-56429523D01*
X229249523Y-56381904D01*
X229344761Y-56286666D01*
X229392380Y-56143809D01*
X229392380Y-55905714D01*
X228392380Y-56810476D02*
X228392380Y-57429523D01*
X228773333Y-57096190D01*
X228773333Y-57239047D01*
X228820952Y-57334285D01*
X228868571Y-57381904D01*
X228963809Y-57429523D01*
X229201904Y-57429523D01*
X229297142Y-57381904D01*
X229344761Y-57334285D01*
X229392380Y-57239047D01*
X229392380Y-56953333D01*
X229344761Y-56858095D01*
X229297142Y-56810476D01*
X228487619Y-57810476D02*
X228440000Y-57858095D01*
X228392380Y-57953333D01*
X228392380Y-58191428D01*
X228440000Y-58286666D01*
X228487619Y-58334285D01*
X228582857Y-58381904D01*
X228678095Y-58381904D01*
X228820952Y-58334285D01*
X229392380Y-57762857D01*
X229392380Y-58381904D01*
%TO.C,D31*%
X224632380Y-94005714D02*
X223632380Y-94005714D01*
X223632380Y-94243809D01*
X223680000Y-94386666D01*
X223775238Y-94481904D01*
X223870476Y-94529523D01*
X224060952Y-94577142D01*
X224203809Y-94577142D01*
X224394285Y-94529523D01*
X224489523Y-94481904D01*
X224584761Y-94386666D01*
X224632380Y-94243809D01*
X224632380Y-94005714D01*
X223632380Y-94910476D02*
X223632380Y-95529523D01*
X224013333Y-95196190D01*
X224013333Y-95339047D01*
X224060952Y-95434285D01*
X224108571Y-95481904D01*
X224203809Y-95529523D01*
X224441904Y-95529523D01*
X224537142Y-95481904D01*
X224584761Y-95434285D01*
X224632380Y-95339047D01*
X224632380Y-95053333D01*
X224584761Y-94958095D01*
X224537142Y-94910476D01*
X224632380Y-96481904D02*
X224632380Y-95910476D01*
X224632380Y-96196190D02*
X223632380Y-96196190D01*
X223775238Y-96100952D01*
X223870476Y-96005714D01*
X223918095Y-95910476D01*
%TO.C,D30*%
X215102380Y-74945714D02*
X214102380Y-74945714D01*
X214102380Y-75183809D01*
X214150000Y-75326666D01*
X214245238Y-75421904D01*
X214340476Y-75469523D01*
X214530952Y-75517142D01*
X214673809Y-75517142D01*
X214864285Y-75469523D01*
X214959523Y-75421904D01*
X215054761Y-75326666D01*
X215102380Y-75183809D01*
X215102380Y-74945714D01*
X214102380Y-75850476D02*
X214102380Y-76469523D01*
X214483333Y-76136190D01*
X214483333Y-76279047D01*
X214530952Y-76374285D01*
X214578571Y-76421904D01*
X214673809Y-76469523D01*
X214911904Y-76469523D01*
X215007142Y-76421904D01*
X215054761Y-76374285D01*
X215102380Y-76279047D01*
X215102380Y-75993333D01*
X215054761Y-75898095D01*
X215007142Y-75850476D01*
X214102380Y-77088571D02*
X214102380Y-77183809D01*
X214150000Y-77279047D01*
X214197619Y-77326666D01*
X214292857Y-77374285D01*
X214483333Y-77421904D01*
X214721428Y-77421904D01*
X214911904Y-77374285D01*
X215007142Y-77326666D01*
X215054761Y-77279047D01*
X215102380Y-77183809D01*
X215102380Y-77088571D01*
X215054761Y-76993333D01*
X215007142Y-76945714D01*
X214911904Y-76898095D01*
X214721428Y-76850476D01*
X214483333Y-76850476D01*
X214292857Y-76898095D01*
X214197619Y-76945714D01*
X214150000Y-76993333D01*
X214102380Y-77088571D01*
%TO.C,D29*%
X210342380Y-55905714D02*
X209342380Y-55905714D01*
X209342380Y-56143809D01*
X209390000Y-56286666D01*
X209485238Y-56381904D01*
X209580476Y-56429523D01*
X209770952Y-56477142D01*
X209913809Y-56477142D01*
X210104285Y-56429523D01*
X210199523Y-56381904D01*
X210294761Y-56286666D01*
X210342380Y-56143809D01*
X210342380Y-55905714D01*
X209437619Y-56858095D02*
X209390000Y-56905714D01*
X209342380Y-57000952D01*
X209342380Y-57239047D01*
X209390000Y-57334285D01*
X209437619Y-57381904D01*
X209532857Y-57429523D01*
X209628095Y-57429523D01*
X209770952Y-57381904D01*
X210342380Y-56810476D01*
X210342380Y-57429523D01*
X210342380Y-57905714D02*
X210342380Y-58096190D01*
X210294761Y-58191428D01*
X210247142Y-58239047D01*
X210104285Y-58334285D01*
X209913809Y-58381904D01*
X209532857Y-58381904D01*
X209437619Y-58334285D01*
X209390000Y-58286666D01*
X209342380Y-58191428D01*
X209342380Y-58000952D01*
X209390000Y-57905714D01*
X209437619Y-57858095D01*
X209532857Y-57810476D01*
X209770952Y-57810476D01*
X209866190Y-57858095D01*
X209913809Y-57905714D01*
X209961428Y-58000952D01*
X209961428Y-58191428D01*
X209913809Y-58286666D01*
X209866190Y-58334285D01*
X209770952Y-58381904D01*
%TO.C,D28*%
X205572380Y-93985714D02*
X204572380Y-93985714D01*
X204572380Y-94223809D01*
X204620000Y-94366666D01*
X204715238Y-94461904D01*
X204810476Y-94509523D01*
X205000952Y-94557142D01*
X205143809Y-94557142D01*
X205334285Y-94509523D01*
X205429523Y-94461904D01*
X205524761Y-94366666D01*
X205572380Y-94223809D01*
X205572380Y-93985714D01*
X204667619Y-94938095D02*
X204620000Y-94985714D01*
X204572380Y-95080952D01*
X204572380Y-95319047D01*
X204620000Y-95414285D01*
X204667619Y-95461904D01*
X204762857Y-95509523D01*
X204858095Y-95509523D01*
X205000952Y-95461904D01*
X205572380Y-94890476D01*
X205572380Y-95509523D01*
X205000952Y-96080952D02*
X204953333Y-95985714D01*
X204905714Y-95938095D01*
X204810476Y-95890476D01*
X204762857Y-95890476D01*
X204667619Y-95938095D01*
X204620000Y-95985714D01*
X204572380Y-96080952D01*
X204572380Y-96271428D01*
X204620000Y-96366666D01*
X204667619Y-96414285D01*
X204762857Y-96461904D01*
X204810476Y-96461904D01*
X204905714Y-96414285D01*
X204953333Y-96366666D01*
X205000952Y-96271428D01*
X205000952Y-96080952D01*
X205048571Y-95985714D01*
X205096190Y-95938095D01*
X205191428Y-95890476D01*
X205381904Y-95890476D01*
X205477142Y-95938095D01*
X205524761Y-95985714D01*
X205572380Y-96080952D01*
X205572380Y-96271428D01*
X205524761Y-96366666D01*
X205477142Y-96414285D01*
X205381904Y-96461904D01*
X205191428Y-96461904D01*
X205096190Y-96414285D01*
X205048571Y-96366666D01*
X205000952Y-96271428D01*
%TO.C,D27*%
X196052380Y-74985714D02*
X195052380Y-74985714D01*
X195052380Y-75223809D01*
X195100000Y-75366666D01*
X195195238Y-75461904D01*
X195290476Y-75509523D01*
X195480952Y-75557142D01*
X195623809Y-75557142D01*
X195814285Y-75509523D01*
X195909523Y-75461904D01*
X196004761Y-75366666D01*
X196052380Y-75223809D01*
X196052380Y-74985714D01*
X195147619Y-75938095D02*
X195100000Y-75985714D01*
X195052380Y-76080952D01*
X195052380Y-76319047D01*
X195100000Y-76414285D01*
X195147619Y-76461904D01*
X195242857Y-76509523D01*
X195338095Y-76509523D01*
X195480952Y-76461904D01*
X196052380Y-75890476D01*
X196052380Y-76509523D01*
X195052380Y-76842857D02*
X195052380Y-77509523D01*
X196052380Y-77080952D01*
%TO.C,D26*%
X191292380Y-55915714D02*
X190292380Y-55915714D01*
X190292380Y-56153809D01*
X190340000Y-56296666D01*
X190435238Y-56391904D01*
X190530476Y-56439523D01*
X190720952Y-56487142D01*
X190863809Y-56487142D01*
X191054285Y-56439523D01*
X191149523Y-56391904D01*
X191244761Y-56296666D01*
X191292380Y-56153809D01*
X191292380Y-55915714D01*
X190387619Y-56868095D02*
X190340000Y-56915714D01*
X190292380Y-57010952D01*
X190292380Y-57249047D01*
X190340000Y-57344285D01*
X190387619Y-57391904D01*
X190482857Y-57439523D01*
X190578095Y-57439523D01*
X190720952Y-57391904D01*
X191292380Y-56820476D01*
X191292380Y-57439523D01*
X190292380Y-58296666D02*
X190292380Y-58106190D01*
X190340000Y-58010952D01*
X190387619Y-57963333D01*
X190530476Y-57868095D01*
X190720952Y-57820476D01*
X191101904Y-57820476D01*
X191197142Y-57868095D01*
X191244761Y-57915714D01*
X191292380Y-58010952D01*
X191292380Y-58201428D01*
X191244761Y-58296666D01*
X191197142Y-58344285D01*
X191101904Y-58391904D01*
X190863809Y-58391904D01*
X190768571Y-58344285D01*
X190720952Y-58296666D01*
X190673333Y-58201428D01*
X190673333Y-58010952D01*
X190720952Y-57915714D01*
X190768571Y-57868095D01*
X190863809Y-57820476D01*
%TO.C,D25*%
X186532380Y-94025714D02*
X185532380Y-94025714D01*
X185532380Y-94263809D01*
X185580000Y-94406666D01*
X185675238Y-94501904D01*
X185770476Y-94549523D01*
X185960952Y-94597142D01*
X186103809Y-94597142D01*
X186294285Y-94549523D01*
X186389523Y-94501904D01*
X186484761Y-94406666D01*
X186532380Y-94263809D01*
X186532380Y-94025714D01*
X185627619Y-94978095D02*
X185580000Y-95025714D01*
X185532380Y-95120952D01*
X185532380Y-95359047D01*
X185580000Y-95454285D01*
X185627619Y-95501904D01*
X185722857Y-95549523D01*
X185818095Y-95549523D01*
X185960952Y-95501904D01*
X186532380Y-94930476D01*
X186532380Y-95549523D01*
X185532380Y-96454285D02*
X185532380Y-95978095D01*
X186008571Y-95930476D01*
X185960952Y-95978095D01*
X185913333Y-96073333D01*
X185913333Y-96311428D01*
X185960952Y-96406666D01*
X186008571Y-96454285D01*
X186103809Y-96501904D01*
X186341904Y-96501904D01*
X186437142Y-96454285D01*
X186484761Y-96406666D01*
X186532380Y-96311428D01*
X186532380Y-96073333D01*
X186484761Y-95978095D01*
X186437142Y-95930476D01*
%TO.C,D24*%
X177002380Y-75005714D02*
X176002380Y-75005714D01*
X176002380Y-75243809D01*
X176050000Y-75386666D01*
X176145238Y-75481904D01*
X176240476Y-75529523D01*
X176430952Y-75577142D01*
X176573809Y-75577142D01*
X176764285Y-75529523D01*
X176859523Y-75481904D01*
X176954761Y-75386666D01*
X177002380Y-75243809D01*
X177002380Y-75005714D01*
X176097619Y-75958095D02*
X176050000Y-76005714D01*
X176002380Y-76100952D01*
X176002380Y-76339047D01*
X176050000Y-76434285D01*
X176097619Y-76481904D01*
X176192857Y-76529523D01*
X176288095Y-76529523D01*
X176430952Y-76481904D01*
X177002380Y-75910476D01*
X177002380Y-76529523D01*
X176335714Y-77386666D02*
X177002380Y-77386666D01*
X175954761Y-77148571D02*
X176669047Y-76910476D01*
X176669047Y-77529523D01*
%TO.C,D23*%
X172242380Y-55905714D02*
X171242380Y-55905714D01*
X171242380Y-56143809D01*
X171290000Y-56286666D01*
X171385238Y-56381904D01*
X171480476Y-56429523D01*
X171670952Y-56477142D01*
X171813809Y-56477142D01*
X172004285Y-56429523D01*
X172099523Y-56381904D01*
X172194761Y-56286666D01*
X172242380Y-56143809D01*
X172242380Y-55905714D01*
X171337619Y-56858095D02*
X171290000Y-56905714D01*
X171242380Y-57000952D01*
X171242380Y-57239047D01*
X171290000Y-57334285D01*
X171337619Y-57381904D01*
X171432857Y-57429523D01*
X171528095Y-57429523D01*
X171670952Y-57381904D01*
X172242380Y-56810476D01*
X172242380Y-57429523D01*
X171242380Y-57762857D02*
X171242380Y-58381904D01*
X171623333Y-58048571D01*
X171623333Y-58191428D01*
X171670952Y-58286666D01*
X171718571Y-58334285D01*
X171813809Y-58381904D01*
X172051904Y-58381904D01*
X172147142Y-58334285D01*
X172194761Y-58286666D01*
X172242380Y-58191428D01*
X172242380Y-57905714D01*
X172194761Y-57810476D01*
X172147142Y-57762857D01*
%TO.C,D22*%
X170892380Y-97545714D02*
X169892380Y-97545714D01*
X169892380Y-97783809D01*
X169940000Y-97926666D01*
X170035238Y-98021904D01*
X170130476Y-98069523D01*
X170320952Y-98117142D01*
X170463809Y-98117142D01*
X170654285Y-98069523D01*
X170749523Y-98021904D01*
X170844761Y-97926666D01*
X170892380Y-97783809D01*
X170892380Y-97545714D01*
X169987619Y-98498095D02*
X169940000Y-98545714D01*
X169892380Y-98640952D01*
X169892380Y-98879047D01*
X169940000Y-98974285D01*
X169987619Y-99021904D01*
X170082857Y-99069523D01*
X170178095Y-99069523D01*
X170320952Y-99021904D01*
X170892380Y-98450476D01*
X170892380Y-99069523D01*
X169987619Y-99450476D02*
X169940000Y-99498095D01*
X169892380Y-99593333D01*
X169892380Y-99831428D01*
X169940000Y-99926666D01*
X169987619Y-99974285D01*
X170082857Y-100021904D01*
X170178095Y-100021904D01*
X170320952Y-99974285D01*
X170892380Y-99402857D01*
X170892380Y-100021904D01*
%TO.C,D21*%
X157952380Y-75025714D02*
X156952380Y-75025714D01*
X156952380Y-75263809D01*
X157000000Y-75406666D01*
X157095238Y-75501904D01*
X157190476Y-75549523D01*
X157380952Y-75597142D01*
X157523809Y-75597142D01*
X157714285Y-75549523D01*
X157809523Y-75501904D01*
X157904761Y-75406666D01*
X157952380Y-75263809D01*
X157952380Y-75025714D01*
X157047619Y-75978095D02*
X157000000Y-76025714D01*
X156952380Y-76120952D01*
X156952380Y-76359047D01*
X157000000Y-76454285D01*
X157047619Y-76501904D01*
X157142857Y-76549523D01*
X157238095Y-76549523D01*
X157380952Y-76501904D01*
X157952380Y-75930476D01*
X157952380Y-76549523D01*
X157952380Y-77501904D02*
X157952380Y-76930476D01*
X157952380Y-77216190D02*
X156952380Y-77216190D01*
X157095238Y-77120952D01*
X157190476Y-77025714D01*
X157238095Y-76930476D01*
%TO.C,D20*%
X153192380Y-55905714D02*
X152192380Y-55905714D01*
X152192380Y-56143809D01*
X152240000Y-56286666D01*
X152335238Y-56381904D01*
X152430476Y-56429523D01*
X152620952Y-56477142D01*
X152763809Y-56477142D01*
X152954285Y-56429523D01*
X153049523Y-56381904D01*
X153144761Y-56286666D01*
X153192380Y-56143809D01*
X153192380Y-55905714D01*
X152287619Y-56858095D02*
X152240000Y-56905714D01*
X152192380Y-57000952D01*
X152192380Y-57239047D01*
X152240000Y-57334285D01*
X152287619Y-57381904D01*
X152382857Y-57429523D01*
X152478095Y-57429523D01*
X152620952Y-57381904D01*
X153192380Y-56810476D01*
X153192380Y-57429523D01*
X152192380Y-58048571D02*
X152192380Y-58143809D01*
X152240000Y-58239047D01*
X152287619Y-58286666D01*
X152382857Y-58334285D01*
X152573333Y-58381904D01*
X152811428Y-58381904D01*
X153001904Y-58334285D01*
X153097142Y-58286666D01*
X153144761Y-58239047D01*
X153192380Y-58143809D01*
X153192380Y-58048571D01*
X153144761Y-57953333D01*
X153097142Y-57905714D01*
X153001904Y-57858095D01*
X152811428Y-57810476D01*
X152573333Y-57810476D01*
X152382857Y-57858095D01*
X152287619Y-57905714D01*
X152240000Y-57953333D01*
X152192380Y-58048571D01*
%TO.C,D19*%
X151732380Y-97565714D02*
X150732380Y-97565714D01*
X150732380Y-97803809D01*
X150780000Y-97946666D01*
X150875238Y-98041904D01*
X150970476Y-98089523D01*
X151160952Y-98137142D01*
X151303809Y-98137142D01*
X151494285Y-98089523D01*
X151589523Y-98041904D01*
X151684761Y-97946666D01*
X151732380Y-97803809D01*
X151732380Y-97565714D01*
X151732380Y-99089523D02*
X151732380Y-98518095D01*
X151732380Y-98803809D02*
X150732380Y-98803809D01*
X150875238Y-98708571D01*
X150970476Y-98613333D01*
X151018095Y-98518095D01*
X151732380Y-99565714D02*
X151732380Y-99756190D01*
X151684761Y-99851428D01*
X151637142Y-99899047D01*
X151494285Y-99994285D01*
X151303809Y-100041904D01*
X150922857Y-100041904D01*
X150827619Y-99994285D01*
X150780000Y-99946666D01*
X150732380Y-99851428D01*
X150732380Y-99660952D01*
X150780000Y-99565714D01*
X150827619Y-99518095D01*
X150922857Y-99470476D01*
X151160952Y-99470476D01*
X151256190Y-99518095D01*
X151303809Y-99565714D01*
X151351428Y-99660952D01*
X151351428Y-99851428D01*
X151303809Y-99946666D01*
X151256190Y-99994285D01*
X151160952Y-100041904D01*
%TO.C,D18*%
X138912380Y-74965714D02*
X137912380Y-74965714D01*
X137912380Y-75203809D01*
X137960000Y-75346666D01*
X138055238Y-75441904D01*
X138150476Y-75489523D01*
X138340952Y-75537142D01*
X138483809Y-75537142D01*
X138674285Y-75489523D01*
X138769523Y-75441904D01*
X138864761Y-75346666D01*
X138912380Y-75203809D01*
X138912380Y-74965714D01*
X138912380Y-76489523D02*
X138912380Y-75918095D01*
X138912380Y-76203809D02*
X137912380Y-76203809D01*
X138055238Y-76108571D01*
X138150476Y-76013333D01*
X138198095Y-75918095D01*
X138340952Y-77060952D02*
X138293333Y-76965714D01*
X138245714Y-76918095D01*
X138150476Y-76870476D01*
X138102857Y-76870476D01*
X138007619Y-76918095D01*
X137960000Y-76965714D01*
X137912380Y-77060952D01*
X137912380Y-77251428D01*
X137960000Y-77346666D01*
X138007619Y-77394285D01*
X138102857Y-77441904D01*
X138150476Y-77441904D01*
X138245714Y-77394285D01*
X138293333Y-77346666D01*
X138340952Y-77251428D01*
X138340952Y-77060952D01*
X138388571Y-76965714D01*
X138436190Y-76918095D01*
X138531428Y-76870476D01*
X138721904Y-76870476D01*
X138817142Y-76918095D01*
X138864761Y-76965714D01*
X138912380Y-77060952D01*
X138912380Y-77251428D01*
X138864761Y-77346666D01*
X138817142Y-77394285D01*
X138721904Y-77441904D01*
X138531428Y-77441904D01*
X138436190Y-77394285D01*
X138388571Y-77346666D01*
X138340952Y-77251428D01*
%TO.C,D17*%
X134142380Y-55885714D02*
X133142380Y-55885714D01*
X133142380Y-56123809D01*
X133190000Y-56266666D01*
X133285238Y-56361904D01*
X133380476Y-56409523D01*
X133570952Y-56457142D01*
X133713809Y-56457142D01*
X133904285Y-56409523D01*
X133999523Y-56361904D01*
X134094761Y-56266666D01*
X134142380Y-56123809D01*
X134142380Y-55885714D01*
X134142380Y-57409523D02*
X134142380Y-56838095D01*
X134142380Y-57123809D02*
X133142380Y-57123809D01*
X133285238Y-57028571D01*
X133380476Y-56933333D01*
X133428095Y-56838095D01*
X133142380Y-57742857D02*
X133142380Y-58409523D01*
X134142380Y-57980952D01*
%TO.C,D16*%
X129372380Y-93995714D02*
X128372380Y-93995714D01*
X128372380Y-94233809D01*
X128420000Y-94376666D01*
X128515238Y-94471904D01*
X128610476Y-94519523D01*
X128800952Y-94567142D01*
X128943809Y-94567142D01*
X129134285Y-94519523D01*
X129229523Y-94471904D01*
X129324761Y-94376666D01*
X129372380Y-94233809D01*
X129372380Y-93995714D01*
X129372380Y-95519523D02*
X129372380Y-94948095D01*
X129372380Y-95233809D02*
X128372380Y-95233809D01*
X128515238Y-95138571D01*
X128610476Y-95043333D01*
X128658095Y-94948095D01*
X128372380Y-96376666D02*
X128372380Y-96186190D01*
X128420000Y-96090952D01*
X128467619Y-96043333D01*
X128610476Y-95948095D01*
X128800952Y-95900476D01*
X129181904Y-95900476D01*
X129277142Y-95948095D01*
X129324761Y-95995714D01*
X129372380Y-96090952D01*
X129372380Y-96281428D01*
X129324761Y-96376666D01*
X129277142Y-96424285D01*
X129181904Y-96471904D01*
X128943809Y-96471904D01*
X128848571Y-96424285D01*
X128800952Y-96376666D01*
X128753333Y-96281428D01*
X128753333Y-96090952D01*
X128800952Y-95995714D01*
X128848571Y-95948095D01*
X128943809Y-95900476D01*
%TO.C,D15*%
X119852380Y-75005714D02*
X118852380Y-75005714D01*
X118852380Y-75243809D01*
X118900000Y-75386666D01*
X118995238Y-75481904D01*
X119090476Y-75529523D01*
X119280952Y-75577142D01*
X119423809Y-75577142D01*
X119614285Y-75529523D01*
X119709523Y-75481904D01*
X119804761Y-75386666D01*
X119852380Y-75243809D01*
X119852380Y-75005714D01*
X119852380Y-76529523D02*
X119852380Y-75958095D01*
X119852380Y-76243809D02*
X118852380Y-76243809D01*
X118995238Y-76148571D01*
X119090476Y-76053333D01*
X119138095Y-75958095D01*
X118852380Y-77434285D02*
X118852380Y-76958095D01*
X119328571Y-76910476D01*
X119280952Y-76958095D01*
X119233333Y-77053333D01*
X119233333Y-77291428D01*
X119280952Y-77386666D01*
X119328571Y-77434285D01*
X119423809Y-77481904D01*
X119661904Y-77481904D01*
X119757142Y-77434285D01*
X119804761Y-77386666D01*
X119852380Y-77291428D01*
X119852380Y-77053333D01*
X119804761Y-76958095D01*
X119757142Y-76910476D01*
%TO.C,D14*%
X115082380Y-55925714D02*
X114082380Y-55925714D01*
X114082380Y-56163809D01*
X114130000Y-56306666D01*
X114225238Y-56401904D01*
X114320476Y-56449523D01*
X114510952Y-56497142D01*
X114653809Y-56497142D01*
X114844285Y-56449523D01*
X114939523Y-56401904D01*
X115034761Y-56306666D01*
X115082380Y-56163809D01*
X115082380Y-55925714D01*
X115082380Y-57449523D02*
X115082380Y-56878095D01*
X115082380Y-57163809D02*
X114082380Y-57163809D01*
X114225238Y-57068571D01*
X114320476Y-56973333D01*
X114368095Y-56878095D01*
X114415714Y-58306666D02*
X115082380Y-58306666D01*
X114034761Y-58068571D02*
X114749047Y-57830476D01*
X114749047Y-58449523D01*
%TO.C,D13*%
X110332380Y-93995714D02*
X109332380Y-93995714D01*
X109332380Y-94233809D01*
X109380000Y-94376666D01*
X109475238Y-94471904D01*
X109570476Y-94519523D01*
X109760952Y-94567142D01*
X109903809Y-94567142D01*
X110094285Y-94519523D01*
X110189523Y-94471904D01*
X110284761Y-94376666D01*
X110332380Y-94233809D01*
X110332380Y-93995714D01*
X110332380Y-95519523D02*
X110332380Y-94948095D01*
X110332380Y-95233809D02*
X109332380Y-95233809D01*
X109475238Y-95138571D01*
X109570476Y-95043333D01*
X109618095Y-94948095D01*
X109332380Y-95852857D02*
X109332380Y-96471904D01*
X109713333Y-96138571D01*
X109713333Y-96281428D01*
X109760952Y-96376666D01*
X109808571Y-96424285D01*
X109903809Y-96471904D01*
X110141904Y-96471904D01*
X110237142Y-96424285D01*
X110284761Y-96376666D01*
X110332380Y-96281428D01*
X110332380Y-95995714D01*
X110284761Y-95900476D01*
X110237142Y-95852857D01*
%TO.C,D12*%
X100802380Y-75025714D02*
X99802380Y-75025714D01*
X99802380Y-75263809D01*
X99850000Y-75406666D01*
X99945238Y-75501904D01*
X100040476Y-75549523D01*
X100230952Y-75597142D01*
X100373809Y-75597142D01*
X100564285Y-75549523D01*
X100659523Y-75501904D01*
X100754761Y-75406666D01*
X100802380Y-75263809D01*
X100802380Y-75025714D01*
X100802380Y-76549523D02*
X100802380Y-75978095D01*
X100802380Y-76263809D02*
X99802380Y-76263809D01*
X99945238Y-76168571D01*
X100040476Y-76073333D01*
X100088095Y-75978095D01*
X99897619Y-76930476D02*
X99850000Y-76978095D01*
X99802380Y-77073333D01*
X99802380Y-77311428D01*
X99850000Y-77406666D01*
X99897619Y-77454285D01*
X99992857Y-77501904D01*
X100088095Y-77501904D01*
X100230952Y-77454285D01*
X100802380Y-76882857D01*
X100802380Y-77501904D01*
%TO.C,D11*%
X96042380Y-55925714D02*
X95042380Y-55925714D01*
X95042380Y-56163809D01*
X95090000Y-56306666D01*
X95185238Y-56401904D01*
X95280476Y-56449523D01*
X95470952Y-56497142D01*
X95613809Y-56497142D01*
X95804285Y-56449523D01*
X95899523Y-56401904D01*
X95994761Y-56306666D01*
X96042380Y-56163809D01*
X96042380Y-55925714D01*
X96042380Y-57449523D02*
X96042380Y-56878095D01*
X96042380Y-57163809D02*
X95042380Y-57163809D01*
X95185238Y-57068571D01*
X95280476Y-56973333D01*
X95328095Y-56878095D01*
X96042380Y-58401904D02*
X96042380Y-57830476D01*
X96042380Y-58116190D02*
X95042380Y-58116190D01*
X95185238Y-58020952D01*
X95280476Y-57925714D01*
X95328095Y-57830476D01*
%TO.C,D10*%
X276754285Y-62182380D02*
X276754285Y-61182380D01*
X276516190Y-61182380D01*
X276373333Y-61230000D01*
X276278095Y-61325238D01*
X276230476Y-61420476D01*
X276182857Y-61610952D01*
X276182857Y-61753809D01*
X276230476Y-61944285D01*
X276278095Y-62039523D01*
X276373333Y-62134761D01*
X276516190Y-62182380D01*
X276754285Y-62182380D01*
X275230476Y-62182380D02*
X275801904Y-62182380D01*
X275516190Y-62182380D02*
X275516190Y-61182380D01*
X275611428Y-61325238D01*
X275706666Y-61420476D01*
X275801904Y-61468095D01*
X274611428Y-61182380D02*
X274516190Y-61182380D01*
X274420952Y-61230000D01*
X274373333Y-61277619D01*
X274325714Y-61372857D01*
X274278095Y-61563333D01*
X274278095Y-61801428D01*
X274325714Y-61991904D01*
X274373333Y-62087142D01*
X274420952Y-62134761D01*
X274516190Y-62182380D01*
X274611428Y-62182380D01*
X274706666Y-62134761D01*
X274754285Y-62087142D01*
X274801904Y-61991904D01*
X274849523Y-61801428D01*
X274849523Y-61563333D01*
X274801904Y-61372857D01*
X274754285Y-61277619D01*
X274706666Y-61230000D01*
X274611428Y-61182380D01*
%TO.C,D9*%
X91282380Y-94501904D02*
X90282380Y-94501904D01*
X90282380Y-94740000D01*
X90330000Y-94882857D01*
X90425238Y-94978095D01*
X90520476Y-95025714D01*
X90710952Y-95073333D01*
X90853809Y-95073333D01*
X91044285Y-95025714D01*
X91139523Y-94978095D01*
X91234761Y-94882857D01*
X91282380Y-94740000D01*
X91282380Y-94501904D01*
X91282380Y-95549523D02*
X91282380Y-95740000D01*
X91234761Y-95835238D01*
X91187142Y-95882857D01*
X91044285Y-95978095D01*
X90853809Y-96025714D01*
X90472857Y-96025714D01*
X90377619Y-95978095D01*
X90330000Y-95930476D01*
X90282380Y-95835238D01*
X90282380Y-95644761D01*
X90330000Y-95549523D01*
X90377619Y-95501904D01*
X90472857Y-95454285D01*
X90710952Y-95454285D01*
X90806190Y-95501904D01*
X90853809Y-95549523D01*
X90901428Y-95644761D01*
X90901428Y-95835238D01*
X90853809Y-95930476D01*
X90806190Y-95978095D01*
X90710952Y-96025714D01*
%TO.C,D8*%
X81752380Y-75461904D02*
X80752380Y-75461904D01*
X80752380Y-75700000D01*
X80800000Y-75842857D01*
X80895238Y-75938095D01*
X80990476Y-75985714D01*
X81180952Y-76033333D01*
X81323809Y-76033333D01*
X81514285Y-75985714D01*
X81609523Y-75938095D01*
X81704761Y-75842857D01*
X81752380Y-75700000D01*
X81752380Y-75461904D01*
X81180952Y-76604761D02*
X81133333Y-76509523D01*
X81085714Y-76461904D01*
X80990476Y-76414285D01*
X80942857Y-76414285D01*
X80847619Y-76461904D01*
X80800000Y-76509523D01*
X80752380Y-76604761D01*
X80752380Y-76795238D01*
X80800000Y-76890476D01*
X80847619Y-76938095D01*
X80942857Y-76985714D01*
X80990476Y-76985714D01*
X81085714Y-76938095D01*
X81133333Y-76890476D01*
X81180952Y-76795238D01*
X81180952Y-76604761D01*
X81228571Y-76509523D01*
X81276190Y-76461904D01*
X81371428Y-76414285D01*
X81561904Y-76414285D01*
X81657142Y-76461904D01*
X81704761Y-76509523D01*
X81752380Y-76604761D01*
X81752380Y-76795238D01*
X81704761Y-76890476D01*
X81657142Y-76938095D01*
X81561904Y-76985714D01*
X81371428Y-76985714D01*
X81276190Y-76938095D01*
X81228571Y-76890476D01*
X81180952Y-76795238D01*
%TO.C,D7*%
X76992380Y-56411904D02*
X75992380Y-56411904D01*
X75992380Y-56650000D01*
X76040000Y-56792857D01*
X76135238Y-56888095D01*
X76230476Y-56935714D01*
X76420952Y-56983333D01*
X76563809Y-56983333D01*
X76754285Y-56935714D01*
X76849523Y-56888095D01*
X76944761Y-56792857D01*
X76992380Y-56650000D01*
X76992380Y-56411904D01*
X75992380Y-57316666D02*
X75992380Y-57983333D01*
X76992380Y-57554761D01*
%TO.C,D6*%
X72232380Y-94481904D02*
X71232380Y-94481904D01*
X71232380Y-94720000D01*
X71280000Y-94862857D01*
X71375238Y-94958095D01*
X71470476Y-95005714D01*
X71660952Y-95053333D01*
X71803809Y-95053333D01*
X71994285Y-95005714D01*
X72089523Y-94958095D01*
X72184761Y-94862857D01*
X72232380Y-94720000D01*
X72232380Y-94481904D01*
X71232380Y-95910476D02*
X71232380Y-95720000D01*
X71280000Y-95624761D01*
X71327619Y-95577142D01*
X71470476Y-95481904D01*
X71660952Y-95434285D01*
X72041904Y-95434285D01*
X72137142Y-95481904D01*
X72184761Y-95529523D01*
X72232380Y-95624761D01*
X72232380Y-95815238D01*
X72184761Y-95910476D01*
X72137142Y-95958095D01*
X72041904Y-96005714D01*
X71803809Y-96005714D01*
X71708571Y-95958095D01*
X71660952Y-95910476D01*
X71613333Y-95815238D01*
X71613333Y-95624761D01*
X71660952Y-95529523D01*
X71708571Y-95481904D01*
X71803809Y-95434285D01*
%TO.C,D5*%
X62702380Y-75471904D02*
X61702380Y-75471904D01*
X61702380Y-75710000D01*
X61750000Y-75852857D01*
X61845238Y-75948095D01*
X61940476Y-75995714D01*
X62130952Y-76043333D01*
X62273809Y-76043333D01*
X62464285Y-75995714D01*
X62559523Y-75948095D01*
X62654761Y-75852857D01*
X62702380Y-75710000D01*
X62702380Y-75471904D01*
X61702380Y-76948095D02*
X61702380Y-76471904D01*
X62178571Y-76424285D01*
X62130952Y-76471904D01*
X62083333Y-76567142D01*
X62083333Y-76805238D01*
X62130952Y-76900476D01*
X62178571Y-76948095D01*
X62273809Y-76995714D01*
X62511904Y-76995714D01*
X62607142Y-76948095D01*
X62654761Y-76900476D01*
X62702380Y-76805238D01*
X62702380Y-76567142D01*
X62654761Y-76471904D01*
X62607142Y-76424285D01*
%TO.C,D4*%
X57942380Y-56381904D02*
X56942380Y-56381904D01*
X56942380Y-56620000D01*
X56990000Y-56762857D01*
X57085238Y-56858095D01*
X57180476Y-56905714D01*
X57370952Y-56953333D01*
X57513809Y-56953333D01*
X57704285Y-56905714D01*
X57799523Y-56858095D01*
X57894761Y-56762857D01*
X57942380Y-56620000D01*
X57942380Y-56381904D01*
X57275714Y-57810476D02*
X57942380Y-57810476D01*
X56894761Y-57572380D02*
X57609047Y-57334285D01*
X57609047Y-57953333D01*
%TO.C,D3*%
X46032380Y-94561904D02*
X45032380Y-94561904D01*
X45032380Y-94800000D01*
X45080000Y-94942857D01*
X45175238Y-95038095D01*
X45270476Y-95085714D01*
X45460952Y-95133333D01*
X45603809Y-95133333D01*
X45794285Y-95085714D01*
X45889523Y-95038095D01*
X45984761Y-94942857D01*
X46032380Y-94800000D01*
X46032380Y-94561904D01*
X45032380Y-95466666D02*
X45032380Y-96085714D01*
X45413333Y-95752380D01*
X45413333Y-95895238D01*
X45460952Y-95990476D01*
X45508571Y-96038095D01*
X45603809Y-96085714D01*
X45841904Y-96085714D01*
X45937142Y-96038095D01*
X45984761Y-95990476D01*
X46032380Y-95895238D01*
X46032380Y-95609523D01*
X45984761Y-95514285D01*
X45937142Y-95466666D01*
%TO.C,D2*%
X41272380Y-75451904D02*
X40272380Y-75451904D01*
X40272380Y-75690000D01*
X40320000Y-75832857D01*
X40415238Y-75928095D01*
X40510476Y-75975714D01*
X40700952Y-76023333D01*
X40843809Y-76023333D01*
X41034285Y-75975714D01*
X41129523Y-75928095D01*
X41224761Y-75832857D01*
X41272380Y-75690000D01*
X41272380Y-75451904D01*
X40367619Y-76404285D02*
X40320000Y-76451904D01*
X40272380Y-76547142D01*
X40272380Y-76785238D01*
X40320000Y-76880476D01*
X40367619Y-76928095D01*
X40462857Y-76975714D01*
X40558095Y-76975714D01*
X40700952Y-76928095D01*
X41272380Y-76356666D01*
X41272380Y-76975714D01*
%TO.C,D1*%
X38892380Y-56381904D02*
X37892380Y-56381904D01*
X37892380Y-56620000D01*
X37940000Y-56762857D01*
X38035238Y-56858095D01*
X38130476Y-56905714D01*
X38320952Y-56953333D01*
X38463809Y-56953333D01*
X38654285Y-56905714D01*
X38749523Y-56858095D01*
X38844761Y-56762857D01*
X38892380Y-56620000D01*
X38892380Y-56381904D01*
X38892380Y-57905714D02*
X38892380Y-57334285D01*
X38892380Y-57620000D02*
X37892380Y-57620000D01*
X38035238Y-57524761D01*
X38130476Y-57429523D01*
X38178095Y-57334285D01*
%TO.C,C_UCAP1*%
X286060549Y-75805015D02*
X286127892Y-75805015D01*
X286262579Y-75737671D01*
X286329923Y-75670328D01*
X286397266Y-75535641D01*
X286397266Y-75400954D01*
X286363594Y-75299938D01*
X286262579Y-75131580D01*
X286161564Y-75030564D01*
X285993205Y-74929549D01*
X285892190Y-74895877D01*
X285757503Y-74895877D01*
X285622816Y-74963221D01*
X285555472Y-75030564D01*
X285488129Y-75165251D01*
X285488129Y-75232595D01*
X286060549Y-76074389D02*
X285521801Y-76613137D01*
X284578992Y-76007045D02*
X285151411Y-76579465D01*
X285185083Y-76680480D01*
X285185083Y-76747824D01*
X285151411Y-76848839D01*
X285016724Y-76983526D01*
X284915709Y-77017198D01*
X284848366Y-77017198D01*
X284747350Y-76983526D01*
X284174931Y-76411106D01*
X284073915Y-77791648D02*
X284141259Y-77791648D01*
X284275946Y-77724305D01*
X284343289Y-77656961D01*
X284410633Y-77522274D01*
X284410633Y-77387587D01*
X284376961Y-77286572D01*
X284275946Y-77118213D01*
X284174931Y-77017198D01*
X284006572Y-76916182D01*
X283905556Y-76882511D01*
X283770869Y-76882511D01*
X283636182Y-76949854D01*
X283568839Y-77017198D01*
X283501495Y-77151885D01*
X283501495Y-77219228D01*
X283669854Y-77926335D02*
X283333137Y-78263053D01*
X283939228Y-78061022D02*
X282996419Y-77589618D01*
X283467824Y-78532427D01*
X283232121Y-78768129D02*
X282525015Y-78061022D01*
X282255641Y-78330396D01*
X282221969Y-78431411D01*
X282221969Y-78498755D01*
X282255641Y-78599770D01*
X282356656Y-78700785D01*
X282457671Y-78734457D01*
X282525015Y-78734457D01*
X282626030Y-78700785D01*
X282895404Y-78431411D01*
X282154625Y-79845625D02*
X282558686Y-79441564D01*
X282356656Y-79643594D02*
X281649549Y-78936488D01*
X281817908Y-78970159D01*
X281952595Y-78970159D01*
X282053610Y-78936488D01*
%TO.C,C_DECOUP4*%
X287481327Y-75894236D02*
X287548671Y-75894236D01*
X287683358Y-75826893D01*
X287750701Y-75759549D01*
X287818045Y-75624862D01*
X287818045Y-75490175D01*
X287784373Y-75389160D01*
X287683358Y-75220801D01*
X287582342Y-75119786D01*
X287413984Y-75018771D01*
X287312968Y-74985099D01*
X287178281Y-74985099D01*
X287043594Y-75052442D01*
X286976251Y-75119786D01*
X286908907Y-75254473D01*
X286908907Y-75321816D01*
X287481327Y-76163610D02*
X286942579Y-76702358D01*
X286706877Y-76803373D02*
X285999770Y-76096267D01*
X285831411Y-76264625D01*
X285764068Y-76399312D01*
X285764068Y-76533999D01*
X285797740Y-76635015D01*
X285898755Y-76803373D01*
X285999770Y-76904389D01*
X286168129Y-77005404D01*
X286269144Y-77039076D01*
X286403831Y-77039076D01*
X286538518Y-76971732D01*
X286706877Y-76803373D01*
X285629381Y-77140091D02*
X285393679Y-77375793D01*
X285663053Y-77847198D02*
X285999770Y-77510480D01*
X285292663Y-76803373D01*
X284955946Y-77140091D01*
X284888602Y-78486961D02*
X284955946Y-78486961D01*
X285090633Y-78419618D01*
X285157976Y-78352274D01*
X285225320Y-78217587D01*
X285225320Y-78082900D01*
X285191648Y-77981885D01*
X285090633Y-77813526D01*
X284989618Y-77712511D01*
X284821259Y-77611495D01*
X284720244Y-77577824D01*
X284585556Y-77577824D01*
X284450869Y-77645167D01*
X284383526Y-77712511D01*
X284316182Y-77847198D01*
X284316182Y-77914541D01*
X283811106Y-78284931D02*
X283676419Y-78419618D01*
X283642747Y-78520633D01*
X283642747Y-78655320D01*
X283743763Y-78823679D01*
X283979465Y-79059381D01*
X284147824Y-79160396D01*
X284282511Y-79160396D01*
X284383526Y-79126724D01*
X284518213Y-78992037D01*
X284551885Y-78891022D01*
X284551885Y-78756335D01*
X284450869Y-78587976D01*
X284215167Y-78352274D01*
X284046808Y-78251259D01*
X283912121Y-78251259D01*
X283811106Y-78284931D01*
X283205015Y-78891022D02*
X283777434Y-79463442D01*
X283811106Y-79564457D01*
X283811106Y-79631801D01*
X283777434Y-79732816D01*
X283642747Y-79867503D01*
X283541732Y-79901175D01*
X283474389Y-79901175D01*
X283373373Y-79867503D01*
X282800954Y-79295083D01*
X283171343Y-80338907D02*
X282464236Y-79631801D01*
X282194862Y-79901175D01*
X282161190Y-80002190D01*
X282161190Y-80069533D01*
X282194862Y-80170549D01*
X282295877Y-80271564D01*
X282396893Y-80305236D01*
X282464236Y-80305236D01*
X282565251Y-80271564D01*
X282834625Y-80002190D01*
X281689786Y-80877655D02*
X282161190Y-81349060D01*
X281588771Y-80439923D02*
X282262206Y-80776640D01*
X281824473Y-81214373D01*
%TO.C,C_DECOUP3*%
X273757142Y-77632380D02*
X273804761Y-77584761D01*
X273852380Y-77441904D01*
X273852380Y-77346666D01*
X273804761Y-77203809D01*
X273709523Y-77108571D01*
X273614285Y-77060952D01*
X273423809Y-77013333D01*
X273280952Y-77013333D01*
X273090476Y-77060952D01*
X272995238Y-77108571D01*
X272900000Y-77203809D01*
X272852380Y-77346666D01*
X272852380Y-77441904D01*
X272900000Y-77584761D01*
X272947619Y-77632380D01*
X273947619Y-77822857D02*
X273947619Y-78584761D01*
X273852380Y-78822857D02*
X272852380Y-78822857D01*
X272852380Y-79060952D01*
X272900000Y-79203809D01*
X272995238Y-79299047D01*
X273090476Y-79346666D01*
X273280952Y-79394285D01*
X273423809Y-79394285D01*
X273614285Y-79346666D01*
X273709523Y-79299047D01*
X273804761Y-79203809D01*
X273852380Y-79060952D01*
X273852380Y-78822857D01*
X273328571Y-79822857D02*
X273328571Y-80156190D01*
X273852380Y-80299047D02*
X273852380Y-79822857D01*
X272852380Y-79822857D01*
X272852380Y-80299047D01*
X273757142Y-81299047D02*
X273804761Y-81251428D01*
X273852380Y-81108571D01*
X273852380Y-81013333D01*
X273804761Y-80870476D01*
X273709523Y-80775238D01*
X273614285Y-80727619D01*
X273423809Y-80680000D01*
X273280952Y-80680000D01*
X273090476Y-80727619D01*
X272995238Y-80775238D01*
X272900000Y-80870476D01*
X272852380Y-81013333D01*
X272852380Y-81108571D01*
X272900000Y-81251428D01*
X272947619Y-81299047D01*
X272852380Y-81918095D02*
X272852380Y-82108571D01*
X272900000Y-82203809D01*
X272995238Y-82299047D01*
X273185714Y-82346666D01*
X273519047Y-82346666D01*
X273709523Y-82299047D01*
X273804761Y-82203809D01*
X273852380Y-82108571D01*
X273852380Y-81918095D01*
X273804761Y-81822857D01*
X273709523Y-81727619D01*
X273519047Y-81680000D01*
X273185714Y-81680000D01*
X272995238Y-81727619D01*
X272900000Y-81822857D01*
X272852380Y-81918095D01*
X272852380Y-82775238D02*
X273661904Y-82775238D01*
X273757142Y-82822857D01*
X273804761Y-82870476D01*
X273852380Y-82965714D01*
X273852380Y-83156190D01*
X273804761Y-83251428D01*
X273757142Y-83299047D01*
X273661904Y-83346666D01*
X272852380Y-83346666D01*
X273852380Y-83822857D02*
X272852380Y-83822857D01*
X272852380Y-84203809D01*
X272900000Y-84299047D01*
X272947619Y-84346666D01*
X273042857Y-84394285D01*
X273185714Y-84394285D01*
X273280952Y-84346666D01*
X273328571Y-84299047D01*
X273376190Y-84203809D01*
X273376190Y-83822857D01*
X272852380Y-84727619D02*
X272852380Y-85346666D01*
X273233333Y-85013333D01*
X273233333Y-85156190D01*
X273280952Y-85251428D01*
X273328571Y-85299047D01*
X273423809Y-85346666D01*
X273661904Y-85346666D01*
X273757142Y-85299047D01*
X273804761Y-85251428D01*
X273852380Y-85156190D01*
X273852380Y-84870476D01*
X273804761Y-84775238D01*
X273757142Y-84727619D01*
%TO.C,C_DECOUP2*%
X282127619Y-89037142D02*
X282175238Y-89084761D01*
X282318095Y-89132380D01*
X282413333Y-89132380D01*
X282556190Y-89084761D01*
X282651428Y-88989523D01*
X282699047Y-88894285D01*
X282746666Y-88703809D01*
X282746666Y-88560952D01*
X282699047Y-88370476D01*
X282651428Y-88275238D01*
X282556190Y-88180000D01*
X282413333Y-88132380D01*
X282318095Y-88132380D01*
X282175238Y-88180000D01*
X282127619Y-88227619D01*
X281937142Y-89227619D02*
X281175238Y-89227619D01*
X280937142Y-89132380D02*
X280937142Y-88132380D01*
X280699047Y-88132380D01*
X280556190Y-88180000D01*
X280460952Y-88275238D01*
X280413333Y-88370476D01*
X280365714Y-88560952D01*
X280365714Y-88703809D01*
X280413333Y-88894285D01*
X280460952Y-88989523D01*
X280556190Y-89084761D01*
X280699047Y-89132380D01*
X280937142Y-89132380D01*
X279937142Y-88608571D02*
X279603809Y-88608571D01*
X279460952Y-89132380D02*
X279937142Y-89132380D01*
X279937142Y-88132380D01*
X279460952Y-88132380D01*
X278460952Y-89037142D02*
X278508571Y-89084761D01*
X278651428Y-89132380D01*
X278746666Y-89132380D01*
X278889523Y-89084761D01*
X278984761Y-88989523D01*
X279032380Y-88894285D01*
X279080000Y-88703809D01*
X279080000Y-88560952D01*
X279032380Y-88370476D01*
X278984761Y-88275238D01*
X278889523Y-88180000D01*
X278746666Y-88132380D01*
X278651428Y-88132380D01*
X278508571Y-88180000D01*
X278460952Y-88227619D01*
X277841904Y-88132380D02*
X277651428Y-88132380D01*
X277556190Y-88180000D01*
X277460952Y-88275238D01*
X277413333Y-88465714D01*
X277413333Y-88799047D01*
X277460952Y-88989523D01*
X277556190Y-89084761D01*
X277651428Y-89132380D01*
X277841904Y-89132380D01*
X277937142Y-89084761D01*
X278032380Y-88989523D01*
X278080000Y-88799047D01*
X278080000Y-88465714D01*
X278032380Y-88275238D01*
X277937142Y-88180000D01*
X277841904Y-88132380D01*
X276984761Y-88132380D02*
X276984761Y-88941904D01*
X276937142Y-89037142D01*
X276889523Y-89084761D01*
X276794285Y-89132380D01*
X276603809Y-89132380D01*
X276508571Y-89084761D01*
X276460952Y-89037142D01*
X276413333Y-88941904D01*
X276413333Y-88132380D01*
X275937142Y-89132380D02*
X275937142Y-88132380D01*
X275556190Y-88132380D01*
X275460952Y-88180000D01*
X275413333Y-88227619D01*
X275365714Y-88322857D01*
X275365714Y-88465714D01*
X275413333Y-88560952D01*
X275460952Y-88608571D01*
X275556190Y-88656190D01*
X275937142Y-88656190D01*
X274984761Y-88227619D02*
X274937142Y-88180000D01*
X274841904Y-88132380D01*
X274603809Y-88132380D01*
X274508571Y-88180000D01*
X274460952Y-88227619D01*
X274413333Y-88322857D01*
X274413333Y-88418095D01*
X274460952Y-88560952D01*
X275032380Y-89132380D01*
X274413333Y-89132380D01*
%TO.C,C_DECOUP1*%
X282127619Y-74017142D02*
X282175238Y-74064761D01*
X282318095Y-74112380D01*
X282413333Y-74112380D01*
X282556190Y-74064761D01*
X282651428Y-73969523D01*
X282699047Y-73874285D01*
X282746666Y-73683809D01*
X282746666Y-73540952D01*
X282699047Y-73350476D01*
X282651428Y-73255238D01*
X282556190Y-73160000D01*
X282413333Y-73112380D01*
X282318095Y-73112380D01*
X282175238Y-73160000D01*
X282127619Y-73207619D01*
X281937142Y-74207619D02*
X281175238Y-74207619D01*
X280937142Y-74112380D02*
X280937142Y-73112380D01*
X280699047Y-73112380D01*
X280556190Y-73160000D01*
X280460952Y-73255238D01*
X280413333Y-73350476D01*
X280365714Y-73540952D01*
X280365714Y-73683809D01*
X280413333Y-73874285D01*
X280460952Y-73969523D01*
X280556190Y-74064761D01*
X280699047Y-74112380D01*
X280937142Y-74112380D01*
X279937142Y-73588571D02*
X279603809Y-73588571D01*
X279460952Y-74112380D02*
X279937142Y-74112380D01*
X279937142Y-73112380D01*
X279460952Y-73112380D01*
X278460952Y-74017142D02*
X278508571Y-74064761D01*
X278651428Y-74112380D01*
X278746666Y-74112380D01*
X278889523Y-74064761D01*
X278984761Y-73969523D01*
X279032380Y-73874285D01*
X279080000Y-73683809D01*
X279080000Y-73540952D01*
X279032380Y-73350476D01*
X278984761Y-73255238D01*
X278889523Y-73160000D01*
X278746666Y-73112380D01*
X278651428Y-73112380D01*
X278508571Y-73160000D01*
X278460952Y-73207619D01*
X277841904Y-73112380D02*
X277651428Y-73112380D01*
X277556190Y-73160000D01*
X277460952Y-73255238D01*
X277413333Y-73445714D01*
X277413333Y-73779047D01*
X277460952Y-73969523D01*
X277556190Y-74064761D01*
X277651428Y-74112380D01*
X277841904Y-74112380D01*
X277937142Y-74064761D01*
X278032380Y-73969523D01*
X278080000Y-73779047D01*
X278080000Y-73445714D01*
X278032380Y-73255238D01*
X277937142Y-73160000D01*
X277841904Y-73112380D01*
X276984761Y-73112380D02*
X276984761Y-73921904D01*
X276937142Y-74017142D01*
X276889523Y-74064761D01*
X276794285Y-74112380D01*
X276603809Y-74112380D01*
X276508571Y-74064761D01*
X276460952Y-74017142D01*
X276413333Y-73921904D01*
X276413333Y-73112380D01*
X275937142Y-74112380D02*
X275937142Y-73112380D01*
X275556190Y-73112380D01*
X275460952Y-73160000D01*
X275413333Y-73207619D01*
X275365714Y-73302857D01*
X275365714Y-73445714D01*
X275413333Y-73540952D01*
X275460952Y-73588571D01*
X275556190Y-73636190D01*
X275937142Y-73636190D01*
X274413333Y-74112380D02*
X274984761Y-74112380D01*
X274699047Y-74112380D02*
X274699047Y-73112380D01*
X274794285Y-73255238D01*
X274889523Y-73350476D01*
X274984761Y-73398095D01*
%TO.C,USB1*%
X276821726Y-56243154D02*
X276821726Y-56890773D01*
X276783630Y-56966964D01*
X276745535Y-57005059D01*
X276669345Y-57043154D01*
X276516964Y-57043154D01*
X276440773Y-57005059D01*
X276402678Y-56966964D01*
X276364583Y-56890773D01*
X276364583Y-56243154D01*
X276021726Y-57005059D02*
X275907440Y-57043154D01*
X275716964Y-57043154D01*
X275640773Y-57005059D01*
X275602678Y-56966964D01*
X275564583Y-56890773D01*
X275564583Y-56814583D01*
X275602678Y-56738392D01*
X275640773Y-56700297D01*
X275716964Y-56662202D01*
X275869345Y-56624107D01*
X275945535Y-56586011D01*
X275983630Y-56547916D01*
X276021726Y-56471726D01*
X276021726Y-56395535D01*
X275983630Y-56319345D01*
X275945535Y-56281250D01*
X275869345Y-56243154D01*
X275678869Y-56243154D01*
X275564583Y-56281250D01*
X274955059Y-56624107D02*
X274840773Y-56662202D01*
X274802678Y-56700297D01*
X274764583Y-56776488D01*
X274764583Y-56890773D01*
X274802678Y-56966964D01*
X274840773Y-57005059D01*
X274916964Y-57043154D01*
X275221726Y-57043154D01*
X275221726Y-56243154D01*
X274955059Y-56243154D01*
X274878869Y-56281250D01*
X274840773Y-56319345D01*
X274802678Y-56395535D01*
X274802678Y-56471726D01*
X274840773Y-56547916D01*
X274878869Y-56586011D01*
X274955059Y-56624107D01*
X275221726Y-56624107D01*
X274002678Y-57043154D02*
X274459821Y-57043154D01*
X274231250Y-57043154D02*
X274231250Y-56243154D01*
X274307440Y-56357440D01*
X274383630Y-56433630D01*
X274459821Y-56471726D01*
D13*
%TO.C,Y1*%
X286284264Y-85168680D02*
X285718579Y-85734365D01*
X287981320Y-86865736D02*
X286567107Y-85451522D01*
X287415635Y-87431421D02*
X287981320Y-86865736D01*
X285435736Y-89411320D02*
X286142843Y-88704214D01*
X284021522Y-87997107D02*
X285435736Y-89411320D01*
X284445786Y-87007157D02*
X283738680Y-87714264D01*
X284445786Y-87007157D02*
X284162944Y-86724315D01*
X285294315Y-89552742D02*
X283880101Y-88138528D01*
X286567107Y-85451522D02*
X286284264Y-85168680D01*
X284021522Y-87997107D02*
X283738680Y-87714264D01*
X283880101Y-88138528D02*
X283597258Y-87855685D01*
%TO.C,U1*%
X273987341Y-80667348D02*
X273474689Y-81180000D01*
X273474689Y-81180000D02*
X273987341Y-81692652D01*
X283172659Y-81692652D02*
X283685311Y-81180000D01*
X283685311Y-81180000D02*
X283172659Y-80667348D01*
X279092652Y-85772659D02*
X278580000Y-86285311D01*
X278580000Y-86285311D02*
X278067348Y-85772659D01*
X278067348Y-76587341D02*
X278580000Y-76074689D01*
%TO.C,SW1*%
X299499359Y-56455095D02*
G75*
G03*
X298050000Y-56552133I-749359J320095D01*
G01*
%TO.C,R_USB2*%
X271293641Y-57650000D02*
X270986359Y-57650000D01*
X271293641Y-58410000D02*
X270986359Y-58410000D01*
%TO.C,R_USB1*%
X280096359Y-58410000D02*
X280403641Y-58410000D01*
X280096359Y-57650000D02*
X280403641Y-57650000D01*
%TO.C,R_RST1*%
X288300000Y-84333641D02*
X288300000Y-84026359D01*
X287540000Y-84333641D02*
X287540000Y-84026359D01*
%TO.C,R_HWB1*%
X271530000Y-81333641D02*
X271530000Y-81026359D01*
X270770000Y-81333641D02*
X270770000Y-81026359D01*
%TO.C,R_DATA2*%
X276310000Y-69416359D02*
X276310000Y-69723641D01*
X277070000Y-69416359D02*
X277070000Y-69723641D01*
%TO.C,R_DATA1*%
X278210000Y-69396359D02*
X278210000Y-69703641D01*
X277450000Y-69396359D02*
X277450000Y-69703641D01*
%TO.C,F1*%
X279630000Y-60991422D02*
X279630000Y-61508578D01*
X281050000Y-60991422D02*
X281050000Y-61508578D01*
%TO.C,D43*%
X299370000Y-97500000D02*
X297370000Y-97500000D01*
X297370000Y-97500000D02*
X297370000Y-93600000D01*
X299370000Y-97500000D02*
X299370000Y-93600000D01*
%TO.C,D42*%
X294610000Y-78460000D02*
X292610000Y-78460000D01*
X292610000Y-78460000D02*
X292610000Y-74560000D01*
X294610000Y-78460000D02*
X294610000Y-74560000D01*
%TO.C,D41*%
X292230000Y-59380000D02*
X290230000Y-59380000D01*
X290230000Y-59380000D02*
X290230000Y-55480000D01*
X292230000Y-59380000D02*
X292230000Y-55480000D01*
%TO.C,D40*%
X280330000Y-97520000D02*
X278330000Y-97520000D01*
X278330000Y-97520000D02*
X278330000Y-93620000D01*
X280330000Y-97520000D02*
X280330000Y-93620000D01*
%TO.C,D39*%
X270810000Y-78460000D02*
X268810000Y-78460000D01*
X268810000Y-78460000D02*
X268810000Y-74560000D01*
X270810000Y-78460000D02*
X270810000Y-74560000D01*
%TO.C,D38*%
X266040000Y-59400000D02*
X264040000Y-59400000D01*
X264040000Y-59400000D02*
X264040000Y-55500000D01*
X266040000Y-59400000D02*
X266040000Y-55500000D01*
%TO.C,D37*%
X261280000Y-97500000D02*
X259280000Y-97500000D01*
X259280000Y-97500000D02*
X259280000Y-93600000D01*
X261280000Y-97500000D02*
X261280000Y-93600000D01*
%TO.C,D36*%
X251750000Y-78440000D02*
X249750000Y-78440000D01*
X249750000Y-78440000D02*
X249750000Y-74540000D01*
X251750000Y-78440000D02*
X251750000Y-74540000D01*
%TO.C,D35*%
X246990000Y-59370000D02*
X244990000Y-59370000D01*
X244990000Y-59370000D02*
X244990000Y-55470000D01*
X246990000Y-59370000D02*
X246990000Y-55470000D01*
%TO.C,D34*%
X242230000Y-97510000D02*
X240230000Y-97510000D01*
X240230000Y-97510000D02*
X240230000Y-93610000D01*
X242230000Y-97510000D02*
X242230000Y-93610000D01*
%TO.C,D33*%
X232700000Y-78450000D02*
X230700000Y-78450000D01*
X230700000Y-78450000D02*
X230700000Y-74550000D01*
X232700000Y-78450000D02*
X232700000Y-74550000D01*
%TO.C,D32*%
X227940000Y-59370000D02*
X225940000Y-59370000D01*
X225940000Y-59370000D02*
X225940000Y-55470000D01*
X227940000Y-59370000D02*
X227940000Y-55470000D01*
%TO.C,D31*%
X223180000Y-97470000D02*
X221180000Y-97470000D01*
X221180000Y-97470000D02*
X221180000Y-93570000D01*
X223180000Y-97470000D02*
X223180000Y-93570000D01*
%TO.C,D30*%
X213650000Y-78410000D02*
X211650000Y-78410000D01*
X211650000Y-78410000D02*
X211650000Y-74510000D01*
X213650000Y-78410000D02*
X213650000Y-74510000D01*
%TO.C,D29*%
X208890000Y-59370000D02*
X206890000Y-59370000D01*
X206890000Y-59370000D02*
X206890000Y-55470000D01*
X208890000Y-59370000D02*
X208890000Y-55470000D01*
%TO.C,D28*%
X204120000Y-97450000D02*
X202120000Y-97450000D01*
X202120000Y-97450000D02*
X202120000Y-93550000D01*
X204120000Y-97450000D02*
X204120000Y-93550000D01*
%TO.C,D27*%
X194600000Y-78450000D02*
X192600000Y-78450000D01*
X192600000Y-78450000D02*
X192600000Y-74550000D01*
X194600000Y-78450000D02*
X194600000Y-74550000D01*
%TO.C,D26*%
X189840000Y-59380000D02*
X187840000Y-59380000D01*
X187840000Y-59380000D02*
X187840000Y-55480000D01*
X189840000Y-59380000D02*
X189840000Y-55480000D01*
%TO.C,D25*%
X185080000Y-97490000D02*
X183080000Y-97490000D01*
X183080000Y-97490000D02*
X183080000Y-93590000D01*
X185080000Y-97490000D02*
X185080000Y-93590000D01*
%TO.C,D24*%
X175550000Y-78470000D02*
X173550000Y-78470000D01*
X173550000Y-78470000D02*
X173550000Y-74570000D01*
X175550000Y-78470000D02*
X175550000Y-74570000D01*
%TO.C,D23*%
X170790000Y-59370000D02*
X168790000Y-59370000D01*
X168790000Y-59370000D02*
X168790000Y-55470000D01*
X170790000Y-59370000D02*
X170790000Y-55470000D01*
%TO.C,D22*%
X169440000Y-101010000D02*
X167440000Y-101010000D01*
X167440000Y-101010000D02*
X167440000Y-97110000D01*
X169440000Y-101010000D02*
X169440000Y-97110000D01*
%TO.C,D21*%
X156500000Y-78490000D02*
X154500000Y-78490000D01*
X154500000Y-78490000D02*
X154500000Y-74590000D01*
X156500000Y-78490000D02*
X156500000Y-74590000D01*
%TO.C,D20*%
X151740000Y-59370000D02*
X149740000Y-59370000D01*
X149740000Y-59370000D02*
X149740000Y-55470000D01*
X151740000Y-59370000D02*
X151740000Y-55470000D01*
%TO.C,D19*%
X150280000Y-101030000D02*
X148280000Y-101030000D01*
X148280000Y-101030000D02*
X148280000Y-97130000D01*
X150280000Y-101030000D02*
X150280000Y-97130000D01*
%TO.C,D18*%
X137460000Y-78430000D02*
X135460000Y-78430000D01*
X135460000Y-78430000D02*
X135460000Y-74530000D01*
X137460000Y-78430000D02*
X137460000Y-74530000D01*
%TO.C,D17*%
X132690000Y-59350000D02*
X130690000Y-59350000D01*
X130690000Y-59350000D02*
X130690000Y-55450000D01*
X132690000Y-59350000D02*
X132690000Y-55450000D01*
%TO.C,D16*%
X127920000Y-97460000D02*
X125920000Y-97460000D01*
X125920000Y-97460000D02*
X125920000Y-93560000D01*
X127920000Y-97460000D02*
X127920000Y-93560000D01*
%TO.C,D15*%
X118400000Y-78470000D02*
X116400000Y-78470000D01*
X116400000Y-78470000D02*
X116400000Y-74570000D01*
X118400000Y-78470000D02*
X118400000Y-74570000D01*
%TO.C,D14*%
X113630000Y-59390000D02*
X111630000Y-59390000D01*
X111630000Y-59390000D02*
X111630000Y-55490000D01*
X113630000Y-59390000D02*
X113630000Y-55490000D01*
%TO.C,D13*%
X108880000Y-97460000D02*
X106880000Y-97460000D01*
X106880000Y-97460000D02*
X106880000Y-93560000D01*
X108880000Y-97460000D02*
X108880000Y-93560000D01*
%TO.C,D12*%
X99350000Y-78490000D02*
X97350000Y-78490000D01*
X97350000Y-78490000D02*
X97350000Y-74590000D01*
X99350000Y-78490000D02*
X99350000Y-74590000D01*
%TO.C,D11*%
X94590000Y-59390000D02*
X92590000Y-59390000D01*
X92590000Y-59390000D02*
X92590000Y-55490000D01*
X94590000Y-59390000D02*
X94590000Y-55490000D01*
%TO.C,D10*%
X274320000Y-57800000D02*
X276720000Y-57800000D01*
X276720000Y-60900000D02*
X273770000Y-60900000D01*
%TO.C,D9*%
X89830000Y-97490000D02*
X87830000Y-97490000D01*
X87830000Y-97490000D02*
X87830000Y-93590000D01*
X89830000Y-97490000D02*
X89830000Y-93590000D01*
%TO.C,D8*%
X80300000Y-78450000D02*
X78300000Y-78450000D01*
X78300000Y-78450000D02*
X78300000Y-74550000D01*
X80300000Y-78450000D02*
X80300000Y-74550000D01*
%TO.C,D7*%
X75540000Y-59400000D02*
X73540000Y-59400000D01*
X73540000Y-59400000D02*
X73540000Y-55500000D01*
X75540000Y-59400000D02*
X75540000Y-55500000D01*
%TO.C,D6*%
X70780000Y-97470000D02*
X68780000Y-97470000D01*
X68780000Y-97470000D02*
X68780000Y-93570000D01*
X70780000Y-97470000D02*
X70780000Y-93570000D01*
%TO.C,D5*%
X61250000Y-78460000D02*
X59250000Y-78460000D01*
X59250000Y-78460000D02*
X59250000Y-74560000D01*
X61250000Y-78460000D02*
X61250000Y-74560000D01*
%TO.C,D4*%
X56490000Y-59370000D02*
X54490000Y-59370000D01*
X54490000Y-59370000D02*
X54490000Y-55470000D01*
X56490000Y-59370000D02*
X56490000Y-55470000D01*
%TO.C,D3*%
X44580000Y-97550000D02*
X42580000Y-97550000D01*
X42580000Y-97550000D02*
X42580000Y-93650000D01*
X44580000Y-97550000D02*
X44580000Y-93650000D01*
%TO.C,D2*%
X39820000Y-78440000D02*
X37820000Y-78440000D01*
X37820000Y-78440000D02*
X37820000Y-74540000D01*
X39820000Y-78440000D02*
X39820000Y-74540000D01*
%TO.C,D1*%
X37440000Y-59370000D02*
X35440000Y-59370000D01*
X35440000Y-59370000D02*
X35440000Y-55470000D01*
X37440000Y-59370000D02*
X37440000Y-55470000D01*
%TO.C,C_UCAP1*%
X283398307Y-76830810D02*
X283550810Y-76678307D01*
X282889190Y-76321693D02*
X283041693Y-76169190D01*
%TO.C,C_DECOUP4*%
X284078307Y-77660810D02*
X284230810Y-77508307D01*
X283569190Y-77151693D02*
X283721693Y-76999190D01*
%TO.C,C_DECOUP3*%
X272600000Y-81287836D02*
X272600000Y-81072164D01*
X271880000Y-81287836D02*
X271880000Y-81072164D01*
%TO.C,C_DECOUP2*%
X278472164Y-87880000D02*
X278687836Y-87880000D01*
X278472164Y-87160000D02*
X278687836Y-87160000D01*
%TO.C,C_DECOUP1*%
X278687836Y-74460000D02*
X278472164Y-74460000D01*
X278687836Y-75180000D02*
X278472164Y-75180000D01*
%TD*%
%LPC*%
D14*
%TO.C,Y1*%
X285011472Y-88138528D03*
X285860000Y-87290000D03*
X286708528Y-86441472D03*
%TD*%
D15*
%TO.C,U1*%
X279172202Y-77052264D03*
X279525755Y-77405818D03*
X279879309Y-77759371D03*
X280232862Y-78112924D03*
X280586415Y-78466478D03*
X280939969Y-78820031D03*
X281293522Y-79173585D03*
X281647076Y-79527138D03*
X282000629Y-79880691D03*
X282354182Y-80234245D03*
X282707736Y-80587798D03*
D16*
X282707736Y-81772202D03*
X282354182Y-82125755D03*
X282000629Y-82479309D03*
X281647076Y-82832862D03*
X281293522Y-83186415D03*
X280939969Y-83539969D03*
X280586415Y-83893522D03*
X280232862Y-84247076D03*
X279879309Y-84600629D03*
X279525755Y-84954182D03*
X279172202Y-85307736D03*
D15*
X277987798Y-85307736D03*
X277634245Y-84954182D03*
X277280691Y-84600629D03*
X276927138Y-84247076D03*
X276573585Y-83893522D03*
X276220031Y-83539969D03*
X275866478Y-83186415D03*
X275512924Y-82832862D03*
X275159371Y-82479309D03*
X274805818Y-82125755D03*
X274452264Y-81772202D03*
D16*
X274452264Y-80587798D03*
X274805818Y-80234245D03*
X275159371Y-79880691D03*
X275512924Y-79527138D03*
X275866478Y-79173585D03*
X276220031Y-78820031D03*
X276573585Y-78466478D03*
X276927138Y-78112924D03*
X277280691Y-77759371D03*
X277634245Y-77405818D03*
X277987798Y-77052264D03*
D17*
X278580000Y-81180000D03*
%TD*%
D18*
%TO.C,SW1*%
X298750000Y-56135000D03*
D19*
X298750000Y-58035000D03*
%TD*%
D20*
%TO.C,R_USB2*%
X271650000Y-58030000D03*
X270630000Y-58030000D03*
%TD*%
D21*
%TO.C,R_USB1*%
X279740000Y-58030000D03*
X280760000Y-58030000D03*
%TD*%
D22*
%TO.C,R_RST1*%
X287920000Y-84690000D03*
X287920000Y-83670000D03*
%TD*%
%TO.C,R_HWB1*%
X271150000Y-81690000D03*
X271150000Y-80670000D03*
%TD*%
D23*
%TO.C,R_DATA2*%
X276690000Y-69060000D03*
X276690000Y-70080000D03*
%TD*%
%TO.C,R_DATA1*%
X277830000Y-70060000D03*
X277830000Y-69040000D03*
%TD*%
D24*
%TO.C,MX44*%
X183356250Y-86995000D03*
X159543750Y-86995000D03*
D25*
X183356250Y-102235000D03*
X159543750Y-102235000D03*
D26*
X176530000Y-95250000D03*
X166370000Y-95250000D03*
D27*
X167640000Y-92710000D03*
D24*
X171450000Y-95250000D03*
D27*
X173990000Y-90170000D03*
%TD*%
D24*
%TO.C,MX43*%
X164306250Y-86995000D03*
X140493750Y-86995000D03*
D25*
X164306250Y-102235000D03*
X140493750Y-102235000D03*
D26*
X157480000Y-95250000D03*
X147320000Y-95250000D03*
D27*
X148590000Y-92710000D03*
D24*
X152400000Y-95250000D03*
D27*
X154940000Y-90170000D03*
%TD*%
D28*
%TO.C,F1*%
X280340000Y-60312500D03*
X280340000Y-62187500D03*
%TD*%
D29*
%TO.C,D43*%
X298370000Y-96900000D03*
X298370000Y-93600000D03*
%TD*%
%TO.C,D42*%
X293610000Y-77860000D03*
X293610000Y-74560000D03*
%TD*%
%TO.C,D41*%
X291230000Y-58780000D03*
X291230000Y-55480000D03*
%TD*%
%TO.C,D40*%
X279330000Y-96920000D03*
X279330000Y-93620000D03*
%TD*%
%TO.C,D39*%
X269810000Y-77860000D03*
X269810000Y-74560000D03*
%TD*%
%TO.C,D38*%
X265040000Y-58800000D03*
X265040000Y-55500000D03*
%TD*%
%TO.C,D37*%
X260280000Y-96900000D03*
X260280000Y-93600000D03*
%TD*%
%TO.C,D36*%
X250750000Y-77840000D03*
X250750000Y-74540000D03*
%TD*%
%TO.C,D35*%
X245990000Y-58770000D03*
X245990000Y-55470000D03*
%TD*%
%TO.C,D34*%
X241230000Y-96910000D03*
X241230000Y-93610000D03*
%TD*%
%TO.C,D33*%
X231700000Y-77850000D03*
X231700000Y-74550000D03*
%TD*%
%TO.C,D32*%
X226940000Y-58770000D03*
X226940000Y-55470000D03*
%TD*%
%TO.C,D31*%
X222180000Y-96870000D03*
X222180000Y-93570000D03*
%TD*%
%TO.C,D30*%
X212650000Y-77810000D03*
X212650000Y-74510000D03*
%TD*%
%TO.C,D29*%
X207890000Y-58770000D03*
X207890000Y-55470000D03*
%TD*%
%TO.C,D28*%
X203120000Y-96850000D03*
X203120000Y-93550000D03*
%TD*%
%TO.C,D27*%
X193600000Y-77850000D03*
X193600000Y-74550000D03*
%TD*%
%TO.C,D26*%
X188840000Y-58780000D03*
X188840000Y-55480000D03*
%TD*%
%TO.C,D25*%
X184080000Y-96890000D03*
X184080000Y-93590000D03*
%TD*%
%TO.C,D24*%
X174550000Y-77870000D03*
X174550000Y-74570000D03*
%TD*%
%TO.C,D23*%
X169790000Y-58770000D03*
X169790000Y-55470000D03*
%TD*%
%TO.C,D22*%
X168440000Y-100410000D03*
X168440000Y-97110000D03*
%TD*%
%TO.C,D21*%
X155500000Y-77890000D03*
X155500000Y-74590000D03*
%TD*%
%TO.C,D20*%
X150740000Y-58770000D03*
X150740000Y-55470000D03*
%TD*%
%TO.C,D19*%
X149280000Y-100430000D03*
X149280000Y-97130000D03*
%TD*%
%TO.C,D18*%
X136460000Y-77830000D03*
X136460000Y-74530000D03*
%TD*%
%TO.C,D17*%
X131690000Y-58750000D03*
X131690000Y-55450000D03*
%TD*%
%TO.C,D16*%
X126920000Y-96860000D03*
X126920000Y-93560000D03*
%TD*%
%TO.C,D15*%
X117400000Y-77870000D03*
X117400000Y-74570000D03*
%TD*%
%TO.C,D14*%
X112630000Y-58790000D03*
X112630000Y-55490000D03*
%TD*%
%TO.C,D13*%
X107880000Y-96860000D03*
X107880000Y-93560000D03*
%TD*%
%TO.C,D12*%
X98350000Y-77890000D03*
X98350000Y-74590000D03*
%TD*%
%TO.C,D11*%
X93590000Y-58790000D03*
X93590000Y-55490000D03*
%TD*%
D30*
%TO.C,D10*%
X274420000Y-60120000D03*
D31*
X274420000Y-58400000D03*
X276620000Y-58400000D03*
X276620000Y-60300000D03*
%TD*%
D29*
%TO.C,D9*%
X88830000Y-96890000D03*
X88830000Y-93590000D03*
%TD*%
%TO.C,D8*%
X79300000Y-77850000D03*
X79300000Y-74550000D03*
%TD*%
%TO.C,D7*%
X74540000Y-58800000D03*
X74540000Y-55500000D03*
%TD*%
%TO.C,D6*%
X69780000Y-96870000D03*
X69780000Y-93570000D03*
%TD*%
%TO.C,D5*%
X60250000Y-77860000D03*
X60250000Y-74560000D03*
%TD*%
%TO.C,D4*%
X55490000Y-58770000D03*
X55490000Y-55470000D03*
%TD*%
%TO.C,D3*%
X43580000Y-96950000D03*
X43580000Y-93650000D03*
%TD*%
%TO.C,D2*%
X38820000Y-77840000D03*
X38820000Y-74540000D03*
%TD*%
%TO.C,D1*%
X36440000Y-58770000D03*
X36440000Y-55470000D03*
%TD*%
D32*
%TO.C,C_UCAP1*%
X282880589Y-76839411D03*
X283559411Y-76160589D03*
%TD*%
%TO.C,C_DECOUP4*%
X283560589Y-77669411D03*
X284239411Y-76990589D03*
%TD*%
D33*
%TO.C,C_DECOUP3*%
X272240000Y-81660000D03*
X272240000Y-80700000D03*
%TD*%
D34*
%TO.C,C_DECOUP2*%
X278100000Y-87520000D03*
X279060000Y-87520000D03*
%TD*%
D35*
%TO.C,C_DECOUP1*%
X279060000Y-74820000D03*
X278100000Y-74820000D03*
%TD*%
D26*
%TO.C,MX21*%
X156845000Y-95250000D03*
X167005000Y-95250000D03*
D24*
X161925000Y-95250000D03*
D27*
X158115000Y-92710000D03*
X164465000Y-90170000D03*
%TD*%
D24*
%TO.C,MX26*%
X190500000Y-76200000D03*
D26*
X185420000Y-76200000D03*
X195580000Y-76200000D03*
D27*
X186690000Y-73660000D03*
X193040000Y-71120000D03*
%TD*%
D24*
%TO.C,MX31*%
X223837500Y-57150000D03*
D26*
X218757500Y-57150000D03*
X228917500Y-57150000D03*
D27*
X220027500Y-54610000D03*
X226377500Y-52070000D03*
%TD*%
D26*
%TO.C,MX6*%
X61595000Y-95250000D03*
D24*
X66675000Y-95250000D03*
D26*
X71755000Y-95250000D03*
D27*
X62865000Y-92710000D03*
X69215000Y-90170000D03*
%TD*%
D24*
%TO.C,MX24*%
X180975000Y-95250000D03*
D26*
X186055000Y-95250000D03*
X175895000Y-95250000D03*
D27*
X177165000Y-92710000D03*
X183515000Y-90170000D03*
%TD*%
D26*
%TO.C,MX34*%
X237807500Y-57150000D03*
D24*
X242887500Y-57150000D03*
D26*
X247967500Y-57150000D03*
D27*
X239077500Y-54610000D03*
X245427500Y-52070000D03*
%TD*%
D26*
%TO.C,MX8*%
X71120000Y-76200000D03*
D24*
X76200000Y-76200000D03*
D26*
X81280000Y-76200000D03*
D27*
X72390000Y-73660000D03*
X78740000Y-71120000D03*
%TD*%
D26*
%TO.C,MX19*%
X142557500Y-57150000D03*
X152717500Y-57150000D03*
D24*
X147637500Y-57150000D03*
D27*
X143827500Y-54610000D03*
X150177500Y-52070000D03*
%TD*%
D26*
%TO.C,MX33*%
X233045000Y-95250000D03*
D24*
X238125000Y-95250000D03*
D26*
X243205000Y-95250000D03*
D27*
X234315000Y-92710000D03*
X240665000Y-90170000D03*
%TD*%
D26*
%TO.C,MX9*%
X80645000Y-95250000D03*
X90805000Y-95250000D03*
D24*
X85725000Y-95250000D03*
D27*
X81915000Y-92710000D03*
X88265000Y-90170000D03*
%TD*%
D26*
%TO.C,MX20*%
X157480000Y-76200000D03*
X147320000Y-76200000D03*
D24*
X152400000Y-76200000D03*
D27*
X148590000Y-73660000D03*
X154940000Y-71120000D03*
%TD*%
D26*
%TO.C,MX27*%
X194945000Y-95250000D03*
D24*
X200025000Y-95250000D03*
D26*
X205105000Y-95250000D03*
D27*
X196215000Y-92710000D03*
X202565000Y-90170000D03*
%TD*%
D24*
%TO.C,MX41*%
X290512500Y-76200000D03*
D26*
X295592500Y-76200000D03*
X285432500Y-76200000D03*
D27*
X286702500Y-73660000D03*
X293052500Y-71120000D03*
%TD*%
D26*
%TO.C,MX37*%
X256857500Y-57150000D03*
X267017500Y-57150000D03*
D24*
X261937500Y-57150000D03*
D27*
X258127500Y-54610000D03*
X264477500Y-52070000D03*
%TD*%
D26*
%TO.C,MX16*%
X133667500Y-57150000D03*
X123507500Y-57150000D03*
D24*
X128587500Y-57150000D03*
D27*
X124777500Y-54610000D03*
X131127500Y-52070000D03*
%TD*%
D26*
%TO.C,MX2*%
X30638750Y-76200000D03*
D24*
X35718750Y-76200000D03*
D26*
X40798750Y-76200000D03*
D27*
X31908750Y-73660000D03*
X38258750Y-71120000D03*
%TD*%
D26*
%TO.C,MX23*%
X166370000Y-76200000D03*
X176530000Y-76200000D03*
D24*
X171450000Y-76200000D03*
D27*
X167640000Y-73660000D03*
X173990000Y-71120000D03*
%TD*%
D24*
%TO.C,MX11*%
X95250000Y-76200000D03*
D26*
X100330000Y-76200000D03*
X90170000Y-76200000D03*
D27*
X91440000Y-73660000D03*
X97790000Y-71120000D03*
%TD*%
D24*
%TO.C,MX10*%
X90487500Y-57150000D03*
D26*
X95567500Y-57150000D03*
X85407500Y-57150000D03*
D27*
X86677500Y-54610000D03*
X93027500Y-52070000D03*
%TD*%
D24*
%TO.C,MX38*%
X266700000Y-76200000D03*
D26*
X261620000Y-76200000D03*
X271780000Y-76200000D03*
D27*
X262890000Y-73660000D03*
X269240000Y-71120000D03*
%TD*%
D26*
%TO.C,MX18*%
X137795000Y-95250000D03*
D24*
X142875000Y-95250000D03*
D26*
X147955000Y-95250000D03*
D27*
X139065000Y-92710000D03*
X145415000Y-90170000D03*
%TD*%
D26*
%TO.C,MX40*%
X283051250Y-57150000D03*
D24*
X288131250Y-57150000D03*
D26*
X293211250Y-57150000D03*
D27*
X284321250Y-54610000D03*
X290671250Y-52070000D03*
%TD*%
D26*
%TO.C,MX32*%
X223520000Y-76200000D03*
D24*
X228600000Y-76200000D03*
D26*
X233680000Y-76200000D03*
D27*
X224790000Y-73660000D03*
X231140000Y-71120000D03*
%TD*%
D26*
%TO.C,MX12*%
X109855000Y-95250000D03*
D24*
X104775000Y-95250000D03*
D26*
X99695000Y-95250000D03*
D27*
X100965000Y-92710000D03*
X107315000Y-90170000D03*
%TD*%
D24*
%TO.C,MX22*%
X166687500Y-57150000D03*
D26*
X161607500Y-57150000D03*
X171767500Y-57150000D03*
D27*
X162877500Y-54610000D03*
X169227500Y-52070000D03*
%TD*%
D26*
%TO.C,MX5*%
X52070000Y-76200000D03*
D24*
X57150000Y-76200000D03*
D26*
X62230000Y-76200000D03*
D27*
X53340000Y-73660000D03*
X59690000Y-71120000D03*
%TD*%
D24*
%TO.C,MX4*%
X52387500Y-57150000D03*
D26*
X47307500Y-57150000D03*
X57467500Y-57150000D03*
D27*
X48577500Y-54610000D03*
X54927500Y-52070000D03*
%TD*%
D26*
%TO.C,MX39*%
X281305000Y-95250000D03*
X271145000Y-95250000D03*
D24*
X276225000Y-95250000D03*
D27*
X272415000Y-92710000D03*
X278765000Y-90170000D03*
%TD*%
D26*
%TO.C,MX17*%
X128270000Y-76200000D03*
D24*
X133350000Y-76200000D03*
D26*
X138430000Y-76200000D03*
D27*
X129540000Y-73660000D03*
X135890000Y-71120000D03*
%TD*%
D24*
%TO.C,MX25*%
X185737500Y-57150000D03*
D26*
X190817500Y-57150000D03*
X180657500Y-57150000D03*
D27*
X181927500Y-54610000D03*
X188277500Y-52070000D03*
%TD*%
D26*
%TO.C,MX7*%
X76517500Y-57150000D03*
D24*
X71437500Y-57150000D03*
D26*
X66357500Y-57150000D03*
D27*
X67627500Y-54610000D03*
X73977500Y-52070000D03*
%TD*%
D24*
%TO.C,MX30*%
X219075000Y-95250000D03*
D26*
X224155000Y-95250000D03*
X213995000Y-95250000D03*
D27*
X215265000Y-92710000D03*
X221615000Y-90170000D03*
%TD*%
D24*
%TO.C,MX15*%
X123825000Y-95250000D03*
D26*
X128905000Y-95250000D03*
X118745000Y-95250000D03*
D27*
X120015000Y-92710000D03*
X126365000Y-90170000D03*
%TD*%
D26*
%TO.C,MX28*%
X209867500Y-57150000D03*
D24*
X204787500Y-57150000D03*
D26*
X199707500Y-57150000D03*
D27*
X200977500Y-54610000D03*
X207327500Y-52070000D03*
%TD*%
D26*
%TO.C,MX36*%
X262255000Y-95250000D03*
D24*
X257175000Y-95250000D03*
D26*
X252095000Y-95250000D03*
D27*
X253365000Y-92710000D03*
X259715000Y-90170000D03*
%TD*%
D26*
%TO.C,MX1*%
X28257500Y-57150000D03*
X38417500Y-57150000D03*
D24*
X33337500Y-57150000D03*
D27*
X29527500Y-54610000D03*
X35877500Y-52070000D03*
%TD*%
D24*
%TO.C,MX42*%
X295275000Y-95250000D03*
D26*
X300355000Y-95250000D03*
X290195000Y-95250000D03*
D27*
X291465000Y-92710000D03*
X297815000Y-90170000D03*
%TD*%
D26*
%TO.C,MX29*%
X204470000Y-76200000D03*
X214630000Y-76200000D03*
D24*
X209550000Y-76200000D03*
D27*
X205740000Y-73660000D03*
X212090000Y-71120000D03*
%TD*%
D26*
%TO.C,MX3*%
X35401250Y-95250000D03*
X45561250Y-95250000D03*
D24*
X40481250Y-95250000D03*
D27*
X36671250Y-92710000D03*
X43021250Y-90170000D03*
%TD*%
D24*
%TO.C,MX14*%
X114300000Y-76200000D03*
D26*
X109220000Y-76200000D03*
X119380000Y-76200000D03*
D27*
X110490000Y-73660000D03*
X116840000Y-71120000D03*
%TD*%
D24*
%TO.C,MX35*%
X247650000Y-76200000D03*
D26*
X242570000Y-76200000D03*
X252730000Y-76200000D03*
D27*
X243840000Y-73660000D03*
X250190000Y-71120000D03*
%TD*%
D26*
%TO.C,MX13*%
X114617500Y-57150000D03*
D24*
X109537500Y-57150000D03*
D26*
X104457500Y-57150000D03*
D27*
X105727500Y-54610000D03*
X112077500Y-52070000D03*
%TD*%
D36*
%TO.C,USB1*%
X272541250Y-53681250D03*
X278321250Y-53681250D03*
D37*
X272206250Y-55126250D03*
X272981250Y-55126250D03*
D38*
X273681250Y-55126250D03*
X274181250Y-55126250D03*
X274681250Y-55126250D03*
X275181250Y-55126250D03*
X275681250Y-55126250D03*
X276181250Y-55126250D03*
X276681250Y-55126250D03*
X277181250Y-55126250D03*
D37*
X277881250Y-55126250D03*
X278656250Y-55126250D03*
D39*
X279751250Y-54211250D03*
D40*
X279751250Y-50031250D03*
X271111250Y-50031250D03*
D39*
X271111250Y-54211250D03*
%TD*%
M02*
