M48
; DRILL file {KiCad (5.99.0-10847-g28909c1a72)} date Tue Jun 15 23:46:20 2021
; FORMAT={-:-/ absolute / inch / decimal}
; #@! TF.CreationDate,2021-06-15T23:46:20+03:00
; #@! TF.GenerationSoftware,Kicad,Pcbnew,(5.99.0-10847-g28909c1a72)
; #@! TF.FileFunction,Plated,1,2,PTH
FMAT,2
INCH
; #@! TA.AperFunction,Plated,PTH,ViaDrill
T1C0.0157
; #@! TA.AperFunction,Plated,PTH,ComponentDrill
T2C0.0236
; #@! TA.AperFunction,Plated,PTH,ComponentDrill
T3C0.0276
; #@! TA.AperFunction,Plated,PTH,ComponentDrill
T4C0.0579
%
G90
G05
T1
X5.615Y-3.6075
X6.3717Y-3.5106
X6.376Y-3.3366
X6.3772Y-3.9634
X6.5079Y-3.65
X6.9811Y-3.4291
X8.237Y-3.663
X8.9634Y-3.6524
X9.7748Y-3.6413
X10.4906Y-3.6264
X10.598Y-2.2524
X10.6008Y-3.3134
X10.7358Y-2.8965
X10.7362Y-2.9535
X10.7631Y-3.2212
X10.7772Y-2.8748
X10.7772Y-2.963
X10.8154Y-2.9535
X10.8157Y-2.8965
X10.9052Y-2.925
X10.9104Y-2.4234
X10.9122Y-3.4453
X10.9836Y-2.4155
X10.9854Y-2.8965
X10.9917Y-2.228
X11.0378Y-2.498
X11.0941Y-2.1728
X11.1268Y-2.4051
X11.135Y-2.3236
X11.1913Y-3.0839
X11.2012Y-3.3441
X11.2287Y-3.0646
X11.3217Y-3.4709
X11.3531Y-3.3701
X11.4435Y-3.2656
X11.4882Y-3.2264
T3
X11.7618Y-2.21
X11.7618Y-2.2848
T4
X1.1625Y-2.15
X1.2562Y-2.9
X1.4125Y-2.05
X1.4437Y-3.65
X1.5062Y-2.8
X1.6937Y-3.55
X1.9125Y-2.15
X2.1Y-2.9
X2.1625Y-2.05
X2.35Y-2.8
X2.475Y-3.65
X2.6625Y-2.15
X2.725Y-3.55
X2.85Y-2.9
X2.9125Y-2.05
X3.1Y-2.8
X3.225Y-3.65
X3.4125Y-2.15
X3.475Y-3.55
X3.6Y-2.9
X3.6625Y-2.05
X3.85Y-2.8
X3.975Y-3.65
X4.1625Y-2.15
X4.225Y-3.55
X4.35Y-2.9
X4.4125Y-2.05
X4.6Y-2.8
X4.725Y-3.65
X4.9125Y-2.15
X4.975Y-3.55
X5.1Y-2.9
X5.1625Y-2.05
X5.35Y-2.8
X5.475Y-3.65
X5.6625Y-2.15
X5.725Y-3.55
X5.85Y-2.9
X5.85Y-3.65
X5.9125Y-2.05
X6.1Y-2.8
X6.1Y-3.55
X6.225Y-3.65
X6.4125Y-2.15
X6.475Y-3.55
X6.6Y-2.9
X6.6Y-3.65
X6.6625Y-2.05
X6.85Y-2.8
X6.85Y-3.55
X6.975Y-3.65
X7.1625Y-2.15
X7.225Y-3.55
X7.35Y-2.9
X7.4125Y-2.05
X7.6Y-2.8
X7.725Y-3.65
X7.9125Y-2.15
X7.975Y-3.55
X8.1Y-2.9
X8.1625Y-2.05
X8.35Y-2.8
X8.475Y-3.65
X8.6625Y-2.15
X8.725Y-3.55
X8.85Y-2.9
X8.9125Y-2.05
X9.1Y-2.8
X9.225Y-3.65
X9.4125Y-2.15
X9.475Y-3.55
X9.6Y-2.9
X9.6625Y-2.05
X9.85Y-2.8
X9.975Y-3.65
X10.1625Y-2.15
X10.225Y-3.55
X10.35Y-2.9
X10.4125Y-2.05
X10.6Y-2.8
X10.725Y-3.65
X10.975Y-3.55
X11.1937Y-2.15
X11.2875Y-2.9
X11.4437Y-2.05
X11.475Y-3.65
X11.5375Y-2.8
X11.725Y-3.55
T2
G00X10.6737Y-1.9579
M15
G01X10.6737Y-1.9815
M16
G05
G00X10.6737Y-2.1126
M15
G01X10.6737Y-2.156
M16
G05
G00X11.0138Y-1.9579
M15
G01X11.0138Y-1.9815
M16
G05
G00X11.0138Y-2.1126
M15
G01X11.0138Y-2.156
M16
G05
T0
M30
