%TF.GenerationSoftware,KiCad,Pcbnew,(5.99.0-10847-g28909c1a72)*%
%TF.CreationDate,2021-06-15T23:46:12+03:00*%
%TF.ProjectId,vanpole,76616e70-6f6c-4652-9e6b-696361645f70,rev?*%
%TF.SameCoordinates,Original*%
%TF.FileFunction,Paste,Bot*%
%TF.FilePolarity,Positive*%
%FSLAX46Y46*%
G04 Gerber Fmt 4.6, Leading zero omitted, Abs format (unit mm)*
G04 Created by KiCad (PCBNEW (5.99.0-10847-g28909c1a72)) date 2021-06-15 23:46:12*
%MOMM*%
%LPD*%
G01*
G04 APERTURE LIST*
G04 Aperture macros list*
%AMRoundRect*
0 Rectangle with rounded corners*
0 $1 Rounding radius*
0 $2 $3 $4 $5 $6 $7 $8 $9 X,Y pos of 4 corners*
0 Add a 4 corners polygon primitive as box body*
4,1,4,$2,$3,$4,$5,$6,$7,$8,$9,$2,$3,0*
0 Add four circle primitives for the rounded corners*
1,1,$1+$1,$2,$3*
1,1,$1+$1,$4,$5*
1,1,$1+$1,$6,$7*
1,1,$1+$1,$8,$9*
0 Add four rect primitives between the rounded corners*
20,1,$1+$1,$2,$3,$4,$5,0*
20,1,$1+$1,$4,$5,$6,$7,0*
20,1,$1+$1,$6,$7,$8,$9,0*
20,1,$1+$1,$8,$9,$2,$3,0*%
%AMRotRect*
0 Rectangle, with rotation*
0 The origin of the aperture is its center*
0 $1 length*
0 $2 width*
0 $3 Rotation angle, in degrees counterclockwise*
0 Add horizontal line*
21,1,$1,$2,0,0,$3*%
G04 Aperture macros list end*
%ADD10RotRect,0.400000X1.900000X45.000000*%
%ADD11RoundRect,0.062500X0.291682X0.380070X-0.380070X-0.291682X-0.291682X-0.380070X0.380070X0.291682X0*%
%ADD12RoundRect,0.062500X-0.291682X0.380070X-0.380070X0.291682X0.291682X-0.380070X0.380070X-0.291682X0*%
%ADD13RoundRect,0.250000X0.000000X0.388909X-0.388909X0.000000X0.000000X-0.388909X0.388909X0.000000X0*%
%ADD14RoundRect,0.135000X0.135000X0.185000X-0.135000X0.185000X-0.135000X-0.185000X0.135000X-0.185000X0*%
%ADD15RoundRect,0.135000X-0.135000X-0.185000X0.135000X-0.185000X0.135000X0.185000X-0.135000X0.185000X0*%
%ADD16RoundRect,0.135000X0.185000X-0.135000X0.185000X0.135000X-0.185000X0.135000X-0.185000X-0.135000X0*%
%ADD17RoundRect,0.135000X-0.185000X0.135000X-0.185000X-0.135000X0.185000X-0.135000X0.185000X0.135000X0*%
%ADD18RoundRect,0.243750X-0.456250X0.243750X-0.456250X-0.243750X0.456250X-0.243750X0.456250X0.243750X0*%
%ADD19R,1.200000X0.900000*%
%ADD20R,1.400000X1.200000*%
%ADD21R,1.400000X1.000000*%
%ADD22RoundRect,0.140000X0.021213X-0.219203X0.219203X-0.021213X-0.021213X0.219203X-0.219203X0.021213X0*%
%ADD23RoundRect,0.140000X0.170000X-0.140000X0.170000X0.140000X-0.170000X0.140000X-0.170000X-0.140000X0*%
%ADD24RoundRect,0.140000X-0.140000X-0.170000X0.140000X-0.170000X0.140000X0.170000X-0.140000X0.170000X0*%
%ADD25RoundRect,0.140000X0.140000X0.170000X-0.140000X0.170000X-0.140000X-0.170000X0.140000X-0.170000X0*%
%ADD26RoundRect,0.050000X-0.300000X-0.725000X0.300000X-0.725000X0.300000X0.725000X-0.300000X0.725000X0*%
%ADD27RoundRect,0.050000X-0.150000X-0.725000X0.150000X-0.725000X0.150000X0.725000X-0.150000X0.725000X0*%
G04 APERTURE END LIST*
D10*
%TO.C,Y1*%
X285011472Y-88138528D03*
X285860000Y-87290000D03*
X286708528Y-86441472D03*
%TD*%
D11*
%TO.C,U1*%
X279172202Y-77052264D03*
X279525755Y-77405818D03*
X279879309Y-77759371D03*
X280232862Y-78112924D03*
X280586415Y-78466478D03*
X280939969Y-78820031D03*
X281293522Y-79173585D03*
X281647076Y-79527138D03*
X282000629Y-79880691D03*
X282354182Y-80234245D03*
X282707736Y-80587798D03*
D12*
X282707736Y-81772202D03*
X282354182Y-82125755D03*
X282000629Y-82479309D03*
X281647076Y-82832862D03*
X281293522Y-83186415D03*
X280939969Y-83539969D03*
X280586415Y-83893522D03*
X280232862Y-84247076D03*
X279879309Y-84600629D03*
X279525755Y-84954182D03*
X279172202Y-85307736D03*
D11*
X277987798Y-85307736D03*
X277634245Y-84954182D03*
X277280691Y-84600629D03*
X276927138Y-84247076D03*
X276573585Y-83893522D03*
X276220031Y-83539969D03*
X275866478Y-83186415D03*
X275512924Y-82832862D03*
X275159371Y-82479309D03*
X274805818Y-82125755D03*
X274452264Y-81772202D03*
D12*
X274452264Y-80587798D03*
X274805818Y-80234245D03*
X275159371Y-79880691D03*
X275512924Y-79527138D03*
X275866478Y-79173585D03*
X276220031Y-78820031D03*
X276573585Y-78466478D03*
X276927138Y-78112924D03*
X277280691Y-77759371D03*
X277634245Y-77405818D03*
X277987798Y-77052264D03*
D13*
X278580000Y-78422284D03*
X279499239Y-79341522D03*
X280418478Y-80260761D03*
X281337716Y-81180000D03*
X277660761Y-79341522D03*
X278580000Y-80260761D03*
X279499239Y-81180000D03*
X280418478Y-82099239D03*
X276741522Y-80260761D03*
X277660761Y-81180000D03*
X278580000Y-82099239D03*
X279499239Y-83018478D03*
X275822284Y-81180000D03*
X276741522Y-82099239D03*
X277660761Y-83018478D03*
X278580000Y-83937716D03*
%TD*%
D14*
%TO.C,R_USB2*%
X271650000Y-58030000D03*
X270630000Y-58030000D03*
%TD*%
D15*
%TO.C,R_USB1*%
X279740000Y-58030000D03*
X280760000Y-58030000D03*
%TD*%
D16*
%TO.C,R_RST1*%
X287920000Y-84690000D03*
X287920000Y-83670000D03*
%TD*%
%TO.C,R_HWB1*%
X271150000Y-81690000D03*
X271150000Y-80670000D03*
%TD*%
D17*
%TO.C,R_DATA2*%
X276690000Y-69060000D03*
X276690000Y-70080000D03*
%TD*%
%TO.C,R_DATA1*%
X277830000Y-70060000D03*
X277830000Y-69040000D03*
%TD*%
D18*
%TO.C,F1*%
X280340000Y-60312500D03*
X280340000Y-62187500D03*
%TD*%
D19*
%TO.C,D43*%
X298370000Y-96900000D03*
X298370000Y-93600000D03*
%TD*%
%TO.C,D42*%
X293610000Y-77860000D03*
X293610000Y-74560000D03*
%TD*%
%TO.C,D41*%
X291230000Y-58780000D03*
X291230000Y-55480000D03*
%TD*%
%TO.C,D40*%
X279330000Y-96920000D03*
X279330000Y-93620000D03*
%TD*%
%TO.C,D39*%
X269810000Y-77860000D03*
X269810000Y-74560000D03*
%TD*%
%TO.C,D38*%
X265040000Y-58800000D03*
X265040000Y-55500000D03*
%TD*%
%TO.C,D37*%
X260280000Y-96900000D03*
X260280000Y-93600000D03*
%TD*%
%TO.C,D36*%
X250750000Y-77840000D03*
X250750000Y-74540000D03*
%TD*%
%TO.C,D35*%
X245990000Y-58770000D03*
X245990000Y-55470000D03*
%TD*%
%TO.C,D34*%
X241230000Y-96910000D03*
X241230000Y-93610000D03*
%TD*%
%TO.C,D33*%
X231700000Y-77850000D03*
X231700000Y-74550000D03*
%TD*%
%TO.C,D32*%
X226940000Y-58770000D03*
X226940000Y-55470000D03*
%TD*%
%TO.C,D31*%
X222180000Y-96870000D03*
X222180000Y-93570000D03*
%TD*%
%TO.C,D30*%
X212650000Y-77810000D03*
X212650000Y-74510000D03*
%TD*%
%TO.C,D29*%
X207890000Y-58770000D03*
X207890000Y-55470000D03*
%TD*%
%TO.C,D28*%
X203120000Y-96850000D03*
X203120000Y-93550000D03*
%TD*%
%TO.C,D27*%
X193600000Y-77850000D03*
X193600000Y-74550000D03*
%TD*%
%TO.C,D26*%
X188840000Y-58780000D03*
X188840000Y-55480000D03*
%TD*%
%TO.C,D25*%
X184080000Y-96890000D03*
X184080000Y-93590000D03*
%TD*%
%TO.C,D24*%
X174550000Y-77870000D03*
X174550000Y-74570000D03*
%TD*%
%TO.C,D23*%
X169790000Y-58770000D03*
X169790000Y-55470000D03*
%TD*%
%TO.C,D22*%
X168440000Y-100410000D03*
X168440000Y-97110000D03*
%TD*%
%TO.C,D21*%
X155500000Y-77890000D03*
X155500000Y-74590000D03*
%TD*%
%TO.C,D20*%
X150740000Y-58770000D03*
X150740000Y-55470000D03*
%TD*%
%TO.C,D19*%
X149280000Y-100430000D03*
X149280000Y-97130000D03*
%TD*%
%TO.C,D18*%
X136460000Y-77830000D03*
X136460000Y-74530000D03*
%TD*%
%TO.C,D17*%
X131690000Y-58750000D03*
X131690000Y-55450000D03*
%TD*%
%TO.C,D16*%
X126920000Y-96860000D03*
X126920000Y-93560000D03*
%TD*%
%TO.C,D15*%
X117400000Y-77870000D03*
X117400000Y-74570000D03*
%TD*%
%TO.C,D14*%
X112630000Y-58790000D03*
X112630000Y-55490000D03*
%TD*%
%TO.C,D13*%
X107880000Y-96860000D03*
X107880000Y-93560000D03*
%TD*%
%TO.C,D12*%
X98350000Y-77890000D03*
X98350000Y-74590000D03*
%TD*%
%TO.C,D11*%
X93590000Y-58790000D03*
X93590000Y-55490000D03*
%TD*%
D20*
%TO.C,D10*%
X274420000Y-60120000D03*
D21*
X274420000Y-58400000D03*
X276620000Y-58400000D03*
X276620000Y-60300000D03*
%TD*%
D19*
%TO.C,D9*%
X88830000Y-96890000D03*
X88830000Y-93590000D03*
%TD*%
%TO.C,D8*%
X79300000Y-77850000D03*
X79300000Y-74550000D03*
%TD*%
%TO.C,D7*%
X74540000Y-58800000D03*
X74540000Y-55500000D03*
%TD*%
%TO.C,D6*%
X69780000Y-96870000D03*
X69780000Y-93570000D03*
%TD*%
%TO.C,D5*%
X60250000Y-77860000D03*
X60250000Y-74560000D03*
%TD*%
%TO.C,D4*%
X55490000Y-58770000D03*
X55490000Y-55470000D03*
%TD*%
%TO.C,D3*%
X43580000Y-96950000D03*
X43580000Y-93650000D03*
%TD*%
%TO.C,D2*%
X38820000Y-77840000D03*
X38820000Y-74540000D03*
%TD*%
%TO.C,D1*%
X36440000Y-58770000D03*
X36440000Y-55470000D03*
%TD*%
D22*
%TO.C,C_UCAP1*%
X282880589Y-76839411D03*
X283559411Y-76160589D03*
%TD*%
%TO.C,C_DECOUP4*%
X283560589Y-77669411D03*
X284239411Y-76990589D03*
%TD*%
D23*
%TO.C,C_DECOUP3*%
X272240000Y-81660000D03*
X272240000Y-80700000D03*
%TD*%
D24*
%TO.C,C_DECOUP2*%
X278100000Y-87520000D03*
X279060000Y-87520000D03*
%TD*%
D25*
%TO.C,C_DECOUP1*%
X279060000Y-74820000D03*
X278100000Y-74820000D03*
%TD*%
D26*
%TO.C,USB1*%
X272206250Y-55126250D03*
X272981250Y-55126250D03*
D27*
X273681250Y-55126250D03*
X274181250Y-55126250D03*
X274681250Y-55126250D03*
X275181250Y-55126250D03*
X275681250Y-55126250D03*
X276181250Y-55126250D03*
X276681250Y-55126250D03*
X277181250Y-55126250D03*
D26*
X277881250Y-55126250D03*
X278656250Y-55126250D03*
%TD*%
M02*
